<?xml version="1.0" encoding="utf-8"?>
<!-- Generator: Adobe Illustrator 25.4.1, SVG Export Plug-In . SVG Version: 6.00 Build 0)  -->
<svg version="1.1" id="Layer_1" xmlns="http://www.w3.org/2000/svg" xmlns:xlink="http://www.w3.org/1999/xlink" x="0px" y="0px"
	 viewBox="0 0 577.6 522.6" style="enable-background:new 0 0 577.6 522.6;" xml:space="preserve">
<style type="text/css">
	.st0{fill:none;}
	.st1{opacity:0.1;}
	.st2{fill:#FFCC00;}
	.st3{fill:#FFFFFF;}
</style>
<g>
	<circle class="st0" cx="577.7" cy="279.3" r="4"/>
	<path class="st1" d="M557.7,105.4c-4.4,0.5-8.7,1.1-13,1.9v343.9c4.3,0.8,8.6,1.5,13,1.9V105.4z"/>
	<polygon class="st2" points="144.7,63.3 144.7,463.3 544.7,463.3 544.7,451.3 544.7,107.3 544.7,63.3 	"/>
	<path class="st3" d="M202.2,93.8c5.5,9.3,11.1,2.9,9.8-3.4c-0.8-4.1-2.3-8-1.4-12.1v0c1.8-8.7,9.5-14.9,18.4-14.9l0.3,0
		c7.9,0.1,52.4,4.4,12-8.7C211.1,45.1,170,4,141.5,28c-6.2,5.3-10.4,12.6-12.1,20.6c-4.3,19.8-10.3,94.2-9.9,101.1
		c0,0-4,121.1-1.3,189.1c0.1,2.1,0.2,4.2,0.3,6.3c0.7,20.7-19.3,48.7-50.3,67.7c0,0-111.7,69.7-11.4,70.1c4.3,0,8.4,1.5,11.7,4.2
		c7.5,6.1,25.7,16.1,62,12.2c2.4-0.3,4.8-0.1,7.1,0.5c12.5,3.4,38,15,60.6-10c6.9-7.6,19,1,26,0c4.7-0.7,20-13,25-3
		c13.1,26.3,104.8,16.9,127.3,2.5c0.5-0.3,1-0.6,1.5-0.8c6.5-3.1,50.3-25.8-52-40.7c-4.3-0.6-8.2-2.7-11.1-6
		c-11.6-13-45.2-47.3-84.1-57.6c-1.6-0.4-3.1-1-4.5-1.8c-11.6-6.6-54.3-41.1-50.2-186.4c0-0.9,0.1-1.7,0.3-2.6
		c1.1-6.5,6.7-31.5,20.8,5.4c14.9,39.1,12.5-24.9,7.8-45c-0.4-1.8-1.1-3.5-1.8-5.1C196.1,132.4,195.4,80.2,202.2,93.8"/>
</g>
</svg>
