<?xml version="1.0" encoding="utf-8"?>
<!-- Generator: Adobe Illustrator 25.4.1, SVG Export Plug-In . SVG Version: 6.00 Build 0)  -->
<svg version="1.1" xmlns="http://www.w3.org/2000/svg" xmlns:xlink="http://www.w3.org/1999/xlink" x="0px" y="0px"
	 viewBox="0 0 577.6 522.6" style="enable-background:new 0 0 577.6 522.6;" xml:space="preserve">
<style type="text/css">
	.st0{fill:none;}
	.st1{opacity:0.1;enable-background:new    ;}
	.st2{fill:#FFE194;}
	.st3{fill:#FFFFFF;}
	.st4{opacity:0.13;}
	.st5{fill:#A76D47;}
	.st6{fill:#BC8B69;}
	.st7{fill:#CF9A76;}
	.st8{fill:#4C4C6D;}
	.st9{fill:#2A8E00;}
	.st10{fill:#6EBF2E;}
</style>
<g id="Layer_1">
	<circle class="st0" cx="577.7" cy="279.3" r="4"/>
	<path class="st1" d="M557.7,105.4c-4.4,0.5-8.7,1.1-13,1.9v343.9c4.3,0.8,8.6,1.5,13,1.9V105.4z"/>
	<polygon class="st2" points="144.4,63.5 144.4,463.5 544.4,463.5 544.4,451.5 544.4,107.5 544.4,63.5 	"/>
	<path class="st3" d="M202.2,93.8c5.5,9.3,11.1,2.9,9.8-3.4c-0.8-4.1-2.3-8-1.4-12.1l0,0c1.8-8.7,9.5-14.9,18.4-14.9h0.3
		c7.9,0.1,52.4,4.4,12-8.7C211.1,45.1,170,4,141.5,28c-6.2,5.3-10.4,12.6-12.1,20.6c-4.3,19.8-10.3,94.2-9.9,101.1
		c0,0-4,121.1-1.3,189.1c0.1,2.1,0.2,4.2,0.3,6.3c0.7,20.7-19.3,48.7-50.3,67.7c0,0-111.7,69.7-11.4,70.1c4.3,0,8.4,1.5,11.7,4.2
		c7.5,6.1,25.7,16.1,62,12.2c2.4-0.3,4.8-0.1,7.1,0.5c12.5,3.4,38,15,60.6-10c6.9-7.6,19,1,26,0c4.7-0.7,20-13,25-3
		c13.1,26.3,104.8,16.9,127.3,2.5c0.5-0.3,1-0.6,1.5-0.8c6.5-3.1,50.3-25.8-52-40.7c-4.3-0.6-8.2-2.7-11.1-6
		c-11.6-13-45.2-47.3-84.1-57.6c-1.6-0.4-3.1-1-4.5-1.8c-11.6-6.6-54.3-41.1-50.2-186.4c0-0.9,0.1-1.7,0.3-2.6
		c1.1-6.5,6.7-31.5,20.8,5.4c14.9,39.1,12.5-24.9,7.8-45c-0.4-1.8-1.1-3.5-1.8-5.1C196.1,132.4,195.4,80.2,202.2,93.8"/>
	<g class="st4">
		<path d="M397.7,403.9L361.5,384l-5.3-2.9l-21.3-11.7c-0.1,0-0.1-0.1-0.2-0.1c0.1,0,0.2,0.1,0.3,0.1l-1.2-0.7
			c-0.7-0.4-1.4-0.6-2.3-0.7c0.1,0,0.1,0.1,0.2,0.1c-0.1,0-0.2-0.1-0.3-0.1c-0.1,0-0.2-0.1-0.4,0c-0.5-0.3-1.1-0.5-1.6-0.7
			c-11-3.1-27.7,17.7-37.3,46.5c-9.6,28.8-8.4,54.7,2.6,57.8c0.6,0.2,1.1,0.2,1.8,0.3c2.2,0.2,4.8-0.3,7.7-1.4
			c-2.9,1.1-5.6,1.6-7.8,1.4c0.8,0.4,1.7,0.6,2.7,0.7l41.5,2.2C355.9,466.3,387.5,444.2,397.7,403.9z"/>
		<path d="M523.8,473.4l-3.8-2.1c0,0,0,0,0,0l-18.9-10.4c0,0,0,0,0,0.1l-28-15.4c-0.1,1.4-0.4,2.8-0.7,4.2c0.3-1.4,0.6-2.8,0.7-4.2
			l-33.1-18.2c0,0,0-0.1,0-0.1l-42.2-23.2c-10.2,40.2-41.7,62.3-57,70.9l56.3,3l48.3,2.6l37.4,2c0,0,0.1,0,0.1-0.1l27.8,1.5
			c0,0,0,0,0,0l9.5,0.5C526.8,484.7,529.5,476.6,523.8,473.4z M398.9,476.7c9.3-5.6,32-21,39.3-42.2
			C430.9,455.8,408.2,471.1,398.9,476.7z"/>
	</g>
	<g>
		<path class="st5" d="M294.2,467.2c0.6,0.2,1.1,0.3,1.8,0.3c11.9,1,36.2-18.3,45.4-48.2c3-9.7,4-19.3,3.7-28.2
			c-0.7-18.4-7.1-33.2-14.3-37.2c-0.6-0.4-1.1-0.6-1.7-0.8c-11.1-3.4-27.9,19.4-37.6,50.9C281.9,435.4,283.1,463.8,294.2,467.2z"/>
		<path class="st6" d="M333.5,354.7c-0.8-0.4-1.5-0.7-2.3-0.8c1.2,0.5,2.3,1.1,3.5,1.5L333.5,354.7z"/>
		<path class="st6" d="M345,391c0.3,8.9-0.8,18.5-3.7,28.2c-0.4,1.4-0.9,2.6-1.3,4c-10,27.6-32.7,45.2-44.1,44.3
			c0.8,0.4,1.7,0.7,2.7,0.7l41.9,2.4c15.4-9.3,47.2-33.5,57.4-77.5l-36.5-21.7l-5.3-3.2l-21.5-12.8c-1.2-0.5-2.3-1.1-3.5-1.5
			c-0.2,0-0.2-0.1-0.4,0C337.9,357.8,344.4,372.6,345,391z"/>
		<path class="st7" d="M446,476.8l37.7,2.2c6-5.1,15.5-14.3,18.5-23.5L474,438.6C472.3,458.5,455.1,471.2,446,476.8z"/>
		<path class="st6" d="M511.8,480.5c3.1-3.4,7.6-8.7,9.5-13.8l-19.1-11.4c-3.1,9.2-12.6,18.4-18.5,23.5L511.8,480.5z"/>
		<path class="st7" d="M521.4,481.1c6.7,0.4,9.5-8.5,3.7-12l-3.9-2.3c-1.9,5-6.4,10.4-9.5,13.8L521.4,481.1z"/>
		<path class="st6" d="M397.3,473.9l48.7,2.8c9.2-5.5,26.2-18.2,28-38.2l-33.4-19.9C436.4,447.8,405.9,468.6,397.3,473.9z"/>
		<path class="st7" d="M340.5,470.7l56.7,3.3c8.6-5.4,39.1-26.1,43.3-55.4L398,393.2C387.7,437.2,355.9,461.2,340.5,470.7z"/>
	</g>
</g>
<g id="Layer_2">
	<g>
		<path class="st8" d="M387.7,211.4c0,0-0.1,0.1-0.2,0.3c-0.1,0.2-0.3,0.4-0.5,0.6c-0.2,0.2-0.3,0.4-0.4,0.6
			c-0.1,0.2-0.2,0.3-0.2,0.3c-0.1,0.2-0.3,0.4-0.4,0.5s-0.3,0.3-0.4,0.5c0,0-0.1,0.1-0.1,0.1c0,0-0.1,0.1-0.1,0.1
			c-0.2,0.3-0.5,0.6-0.7,0.8s-0.5,0.5-0.9,0.6c-0.1,0.1-0.3,0.1-0.5,0.1c-0.2,0-0.3,0-0.4-0.1c-0.1-0.1-0.2-0.2-0.4-0.3
			c-0.3-0.3-0.4-0.6-0.4-1c0-0.3,0.1-0.6,0.2-0.9s0.3-0.5,0.4-0.8c0,0,0.1-0.2,0.3-0.4s0.3-0.6,0.6-0.9c0.2-0.4,0.4-0.8,0.7-1.2
			c0.2-0.4,0.5-0.8,0.7-1.2c0.2-0.4,0.4-0.7,0.6-1c0.2-0.3,0.3-0.5,0.4-0.5c0.1-0.2,0.2-0.4,0.2-0.5s0.1-0.3,0.1-0.5
			c0-0.3,0-0.5,0-0.8s0-0.5,0-0.8v-4.4c0-0.2,0-0.3,0-0.5c0-0.1,0-0.3,0-0.5c0-0.2,0-0.4,0-0.6c0-0.2,0.1-0.4,0.1-0.5
			c0-0.1,0.1-0.2,0.1-0.3s0.1-0.2,0.2-0.3c0.1-0.1,0.2-0.2,0.3-0.3s0.3-0.1,0.5-0.2l0,0c0.1,0,0.2,0,0.3,0c0.1,0,0.2,0,0.3,0.1
			c0.1,0,0.3,0.1,0.3,0.2c0.1,0.1,0.1,0.2,0.2,0.3c0.1,0.1,0.1,0.2,0.2,0.4c0.1,0.2,0.1,0.4,0.2,0.6c0,0.2,0.1,0.4,0.1,0.7
			c0.1,0.7,0.1,1.5,0.1,2.4s0,1.7,0,2.4c0,0.4,0,0.9,0,1.3s0,0.8,0,1.3c0,0.4,0.1,0.7,0.3,1c0.2,0.3,0.3,0.6,0.5,0.9
			c0.2,0.4,0.3,0.7,0.5,1.1c0.2,0.4,0.4,0.8,0.5,1.1c0,0.1,0.1,0.2,0.2,0.4c0.1,0.2,0.2,0.4,0.3,0.6c0.1,0.2,0.2,0.4,0.3,0.6
			c0.1,0.2,0.1,0.3,0.2,0.3l0,0.2l0.1,0.1c0.1,0.2,0.2,0.4,0.2,0.6c0.1,0.2,0.1,0.4,0.1,0.6s0,0.4-0.2,0.7c-0.2,0.5-0.6,0.8-1,0.8h0
			c-0.3,0-0.5-0.1-0.7-0.3c-0.2-0.2-0.4-0.4-0.7-0.7c-0.2-0.3-0.5-0.6-0.7-0.9c-0.2-0.4-0.4-0.6-0.6-0.9c-0.4-0.6-0.7-1.1-0.9-1.3
			C387.8,211.6,387.7,211.4,387.7,211.4z M400.7,214.7c0,0.5,0,0.9-0.1,1.4c-0.1,0.5-0.3,0.8-0.6,1.1c-0.3,0.2-0.5,0.3-0.8,0.3
			c-0.3,0-0.5-0.1-0.7-0.3c-0.2-0.2-0.3-0.4-0.4-0.7s-0.1-0.6-0.2-0.9c0-0.3,0-0.6,0-0.8v-6.6h-1.7v6.5c0,0.4,0,0.8-0.1,1.2
			c-0.1,0.4-0.2,0.7-0.4,1c-0.2,0.3-0.5,0.4-0.8,0.4c-0.2,0-0.4,0-0.5-0.1c-0.2-0.1-0.3-0.2-0.5-0.3c-0.3-0.3-0.5-0.6-0.5-1
			s-0.1-0.8-0.1-1.2v-14.8c0-0.2,0-0.5,0-0.8c0-0.3,0.1-0.5,0.2-0.8s0.2-0.5,0.4-0.7c0.2-0.2,0.4-0.3,0.7-0.4c0.4-0.1,0.7,0,0.9,0.3
			c0.4,0.4,0.6,0.9,0.7,1.5s0.1,1.3,0.1,2v4.1h1.7V200c0-0.2,0-0.5,0-0.8c0-0.3,0-0.6,0.1-0.9s0.2-0.5,0.4-0.8
			c0.2-0.2,0.4-0.3,0.8-0.4c0.4,0,0.7,0.1,0.9,0.3c0.2,0.2,0.3,0.5,0.4,0.8s0.2,0.6,0.2,1s0,0.7,0,1c0,0.4,0,0.7,0,0.9V214.7z"/>
		<path class="st8" d="M415,206.8c0.1,0.2,0.1,0.3,0.2,0.5s0.1,0.3,0.1,0.5c0,0.2,0,0.3-0.1,0.5c-0.1,0.2-0.2,0.3-0.3,0.4
			c-0.1,0-0.2,0.1-0.3,0.1c-0.1,0-0.3,0.1-0.4,0.1c-0.2,0-0.3,0-0.4,0c-0.1,0-0.2-0.1-0.3-0.2c-0.3-0.5-0.7-1-1-1.6
			c-0.3-0.5-0.6-1.1-0.8-1.7c-0.2,0.4-0.5,0.7-0.7,1.1c-0.2,0.4-0.4,0.8-0.7,1.1c-0.1,0.2-0.2,0.4-0.3,0.5c-0.1,0.2-0.2,0.3-0.4,0.4
			l0,0c-0.2,0.2-0.4,0.3-0.6,0.3c-0.2,0-0.4,0-0.6-0.1c-0.2-0.1-0.3-0.2-0.5-0.4c0,0,0,0,0,0c-0.2-0.2-0.4-0.4-0.5-0.7
			c-0.2-0.3-0.3-0.6-0.4-0.8c-0.1-0.3-0.2-0.6-0.3-0.8c-0.1-0.3-0.2-0.5-0.2-0.6c-0.2,0.4-0.5,0.7-0.7,1.1c-0.2,0.4-0.4,0.8-0.7,1.1
			c-0.2,0.3-0.3,0.5-0.5,0.7c-0.1,0.2-0.4,0.3-0.8,0.4c-0.2,0.1-0.5,0.1-0.7,0c-0.2,0-0.4-0.2-0.5-0.4c-0.1-0.2-0.2-0.4-0.2-0.7
			s0-0.5,0.1-0.7c0.1-0.2,0.2-0.4,0.3-0.7c0.1-0.2,0.3-0.4,0.3-0.6c0.2-0.4,0.5-0.9,0.7-1.3c0.3-0.4,0.5-0.9,0.6-1.4
			c0.1-0.3,0.2-0.5,0.3-0.7c0.1-0.1,0.1-0.3,0.2-0.4s0.1-0.3,0.1-0.4c0-0.2,0-0.4,0-0.7v-1.3c0-0.1,0-0.3,0.1-0.5
			c0-0.2,0.1-0.3,0.1-0.4c0-0.1,0.1-0.2,0.1-0.3c0-0.1,0.1-0.2,0.1-0.3c0.1-0.1,0.2-0.2,0.3-0.3c0.1-0.1,0.3-0.1,0.4-0.1h0
			c0.2-0.1,0.4-0.1,0.6,0c0.1,0.1,0.2,0.1,0.3,0.2c0.1,0,0.2,0.1,0.3,0.2c0.1,0.1,0.2,0.2,0.2,0.3c0.1,0.3,0.2,0.6,0.2,1
			c0,0.3,0,0.5,0,0.5s0,0,0-0.1c0-0.1,0-0.1,0-0.1c0,0,0,0.2,0,0.5c0,0.4,0,0.7,0,0.9c0,0.2,0,0.4,0,0.6c0,0.2,0,0.4,0.1,0.6
			c0.1,0.2,0.2,0.5,0.3,0.9c0.1,0.3,0.2,0.6,0.3,0.8c0.1,0.3,0.2,0.6,0.3,0.8c0.2-0.3,0.3-0.6,0.5-0.9c0.1-0.3,0.3-0.6,0.4-1
			c0.1-0.3,0.2-0.5,0.3-0.7c0.1-0.1,0.1-0.3,0.2-0.4c0-0.1,0.1-0.3,0.1-0.4c0-0.2,0-0.4,0-0.7v-1.3c0-0.1,0-0.3,0.1-0.5
			c0-0.2,0.1-0.3,0.1-0.4c0-0.1,0.1-0.2,0.1-0.3c0.1-0.1,0.1-0.2,0.2-0.3c0.1-0.1,0.2-0.2,0.3-0.3c0.1-0.1,0.3-0.1,0.4-0.1h0.1
			c0.2-0.1,0.4-0.1,0.6,0c0.1,0,0.2,0.1,0.3,0.2c0.1,0.1,0.1,0.1,0.3,0.2c0.1,0.1,0.2,0.2,0.2,0.3c0.1,0.3,0.2,0.6,0.2,1
			c0,0.3,0,0.5,0,0.5c0,0,0,0,0-0.1c0,0,0-0.1,0-0.1c0,0,0,0.2,0,0.5c0,0.4,0,0.7,0,0.9c0,0.2,0,0.4,0,0.6c0,0.2,0,0.4,0.1,0.6
			s0.2,0.5,0.3,0.9c0.2,0.5,0.4,0.9,0.6,1.4s0.4,1,0.6,1.5c0,0.1,0.1,0.2,0.1,0.3C414.9,206.6,415,206.7,415,206.8z M418.4,210.4
			c0.7,0,1.2,0.1,1.5,0.5c0.3,0.3,0.5,0.6,0.5,1v1.4c0,0.1,0,0.1,0,0.3c0,0.1,0,0.3,0,0.4s0,0.3,0,0.4c0,0.1,0,0.2,0,0.3
			c0,0.2,0,0.4,0,0.5c0,0.2,0,0.4,0,0.6c0,0.3-0.2,0.6-0.4,0.8c-0.2,0.2-0.6,0.3-0.9,0.3c-0.1,0-0.2,0-0.4,0c-0.2,0-0.4,0-0.4-0.1
			c-0.2-0.1-0.4-0.2-0.5-0.3c-0.1-0.1-0.2-0.3-0.3-0.5s-0.1-0.3-0.1-0.5c0-0.2,0-0.4,0-0.6c0-0.1,0-0.2,0-0.4c0-0.2,0-0.3,0-0.5
			c0-0.2,0-0.3,0-0.5c0-0.2,0-0.3,0-0.3c-0.1,0-0.2,0-0.4,0s-0.6,0-1.3,0c-0.5,0-0.9,0-1,0c-0.1,0-0.2,0-0.2,0h-9c0,0-0.1,0-0.2-0.1
			c-0.1,0-0.2-0.1-0.4-0.2c-0.1-0.1-0.3-0.2-0.4-0.3c-0.1-0.1-0.2-0.3-0.2-0.4c-0.1-0.6,0-1.1,0.3-1.5c0.2-0.2,0.4-0.4,0.7-0.4
			c0.2,0,0.4-0.1,0.4-0.1H418.4z M420.4,204.7v2.3c0,0.2,0,0.4-0.1,0.6c0,0.2-0.1,0.4-0.2,0.6c-0.1,0.2-0.2,0.4-0.4,0.5
			c-0.2,0.2-0.5,0.3-0.8,0.3c-0.3,0-0.5-0.1-0.7-0.2c-0.2-0.1-0.3-0.2-0.4-0.4c-0.1-0.1-0.2-0.3-0.2-0.4c-0.1-0.1-0.1-0.3-0.1-0.5
			v-8.3c0-0.1,0-0.3,0-0.5c0-0.3,0.1-0.6,0.2-0.8c0.2-0.4,0.5-0.6,1-0.6c0.6-0.1,1.1,0,1.4,0.4c0.1,0.1,0.2,0.3,0.2,0.4
			c0,0.1,0.1,0.3,0.1,0.4c0,0.2,0.1,0.3,0.1,0.5c0,0.2,0,0.4,0,0.6v1.7v0.2c0,0.1,0,0.2,0,0.3c0,0.1,0,0.2,0,0.3c0.1,0,0.2,0,0.4,0
			c0.2,0,0.4,0,0.6,0c0.2,0,0.4,0,0.6,0s0.3,0,0.4,0c0.3,0.1,0.6,0.2,0.7,0.3c0.1,0.1,0.2,0.3,0.3,0.5c0,0.2,0.1,0.4,0.1,0.6
			s-0.1,0.4-0.2,0.6c-0.2,0.3-0.5,0.5-0.9,0.6c-0.4,0-0.8,0.1-1.3,0.1H420.4z"/>
		<path class="st8" d="M432.3,197.7c0.2,0,0.3,0,0.4,0s0.3,0,0.4,0c0.2,0.1,0.5,0.2,0.7,0.3c0.2,0.1,0.4,0.3,0.6,0.5
			c0.2,0.2,0.3,0.5,0.4,0.8c0.1,0.3,0.1,0.6,0.1,0.9c0,0.7,0,1.4,0,2c0,0.6,0,1.3,0,2c0,0.2,0,0.5,0,0.7c0,0.3,0,0.5,0,0.8
			c0,0.3,0,0.5-0.1,0.8c0,0.2-0.1,0.5-0.2,0.7c-0.1,0.2-0.3,0.4-0.5,0.5c-0.2,0.1-0.4,0.2-0.7,0.3c-0.2,0-0.5,0-0.7-0.1
			c-0.2-0.1-0.4-0.2-0.5-0.5c-0.2-0.3-0.3-0.5-0.3-0.8c-0.1-0.3-0.1-0.6-0.1-0.9c0-0.3,0-0.6,0-1c0-0.3,0-0.6,0-0.9
			c0-0.4,0-0.8,0-1.2s0-0.8-0.1-1.2c0-0.2-0.1-0.3-0.2-0.4c-0.1-0.1-0.2-0.2-0.3-0.2c-0.1,0-0.3-0.1-0.4-0.1c-0.1,0-0.3,0-0.5,0
			c-0.2,0-0.3,0-0.3,0s-0.1,0-0.2,0s-0.1,0-0.2,0s-0.2,0-0.3,0h-1.1c-0.5,0-1.1,0-1.7,0c-0.6,0-1.2-0.1-1.8-0.1
			c-0.2,0-0.4-0.1-0.5-0.3c-0.1-0.1-0.2-0.3-0.2-0.5s-0.1-0.4,0-0.6c0-0.2,0-0.4,0.1-0.5c0.1-0.3,0.2-0.6,0.5-0.8
			c0.2-0.1,0.4-0.2,0.6-0.2c0.2,0,0.4,0,0.6,0c0.2,0,0.5,0,0.7,0c0.2,0,0.5,0,0.7,0H432.3z M440.7,215.4c0.3,0,0.7,0.1,1,0.3
			s0.4,0.5,0.4,0.9c0,0.3-0.1,0.5-0.3,0.6c-0.2,0.1-0.4,0.2-0.6,0.3c-0.2,0-0.5,0.1-0.8,0.1c-0.3,0-0.5,0-0.7,0H429
			c-0.3,0-0.7,0-1,0c-0.3,0-0.7,0-1.1,0c-0.4,0-0.6-0.2-0.8-0.5s-0.3-0.6-0.4-0.9c-0.1-0.4-0.1-0.9-0.1-1.3c0-0.4,0-0.9,0-1.3
			c0-0.3,0-0.6,0-0.9c0-0.3,0-0.6,0-0.9c0-0.3,0-0.6,0.1-0.9c0-0.3,0.1-0.5,0.3-0.8c0.4-0.5,1-0.8,1.8-0.8h0.5c0.1,0,0.2,0,0.2,0
			s0.1,0,0.2,0h5c0.9,0,1.7,0,2.6,0c0.9,0,1.7,0,2.6,0c0.2,0,0.5,0,0.8,0s0.6,0,0.9,0c0.3,0,0.6,0.1,0.8,0.2
			c0.3,0.1,0.4,0.2,0.6,0.5c0.2,0.3,0.2,0.6,0,0.9c-0.1,0.3-0.3,0.5-0.6,0.5c-0.5,0.1-0.9,0.1-1.4,0.1s-0.9,0-1.3,0h-9
			c-0.1,0-0.3,0-0.4,0c-0.1,0-0.2,0-0.4,0c-0.2,0-0.2,0-0.3,0.1s0,0.1,0,0.2v0.6c0.1,0.1,0.2,0.1,0.3,0.1c0.1,0,0.3,0,0.4,0
			c0.3,0,0.5,0,0.7,0c0.2,0,0.5,0,0.7,0c0.5,0,1,0,1.5,0c0.5,0,1,0,1.5,0h7c0.2,0,0.4,0,0.6,0c0.2,0,0.4,0.1,0.6,0.2
			c0.2,0.2,0.3,0.4,0.3,0.8s0,0.6-0.2,0.8c-0.1,0.1-0.2,0.2-0.4,0.2s-0.3,0.1-0.5,0.1c-0.4,0.1-0.9,0.1-1.3,0.1c-0.4,0-0.8,0-1.2,0
			h-9.5c-0.1,0-0.2,0-0.3,0c-0.1,0-0.2,0-0.3,0l0,0.8c0.1,0,0.2,0.1,0.3,0.1c0.1,0,0.2,0,0.3,0c0.1,0,0.2,0,0.3,0s0.1,0,0.3,0H440.7
			z M441.7,204.5v2c0,0.4-0.1,0.8-0.4,1.1s-0.6,0.5-1.2,0.5c-0.3,0-0.5-0.1-0.7-0.2c-0.3-0.2-0.5-0.4-0.6-0.7
			c-0.1-0.3-0.1-0.5-0.1-0.6v-7.5c0-0.1,0-0.3,0-0.5c0-0.3,0.1-0.6,0.2-0.8c0.2-0.4,0.5-0.6,1-0.6c0.6-0.1,1.1,0,1.4,0.4
			c0.1,0.1,0.2,0.3,0.2,0.4c0,0.1,0.1,0.3,0.1,0.4c0,0.1,0.1,0.4,0.1,0.6c0,0.3,0,0.5,0,0.7v2c0.1,0,0.2,0,0.4,0c0.2,0,0.4,0,0.6,0
			c0.2,0,0.4,0,0.6,0s0.3,0,0.4,0c0.3,0.1,0.6,0.2,0.7,0.3c0.1,0.1,0.2,0.3,0.3,0.5c0,0.2,0.1,0.4,0.1,0.6s-0.1,0.4-0.2,0.6
			c-0.2,0.3-0.5,0.5-0.9,0.6c-0.4,0-0.8,0.1-1.3,0.1H441.7z"/>
		<path class="st8" d="M461.5,207.1c0.3,0,0.6,0,0.9,0s0.6,0,0.9,0.1c0.3,0.1,0.5,0.2,0.7,0.4c0.2,0.2,0.3,0.5,0.3,1
			c0,0.4-0.2,0.8-0.5,1c-0.3,0.2-0.6,0.4-1,0.4c-0.4,0-0.7,0-1.1,0c-0.1,0-0.2,0-0.2,0s-0.1,0-0.2,0h-13.8c0,0-0.1,0-0.2,0
			c-0.1,0-0.3,0-0.5,0c-0.2,0-0.4-0.1-0.5-0.1c-0.2-0.1-0.3-0.2-0.5-0.3c-0.2-0.2-0.3-0.5-0.3-0.9c0-0.4,0.1-0.6,0.3-0.9
			c0.2-0.2,0.4-0.4,0.7-0.5c0.2-0.1,0.5-0.2,0.7-0.3c0.1,0,0.1,0,0.2,0c0,0,0.1,0,0.2,0c0.2,0,0.5,0,0.8,0c0.3,0,0.5,0,0.8,0
			c0.9,0,1.7,0,2.6,0c0.9,0,1.8,0,2.8,0c1,0,2.2,0,3.3,0c1.2,0,2.3,0,3.5,0H461.5z M454.9,205.5c-1.2,0-2.3-0.1-3.4-0.2
			s-1.9-0.3-2.7-0.6c-0.8-0.3-1.4-0.8-1.8-1.3c-0.4-0.6-0.7-1.3-0.7-2.2c0-0.8,0.2-1.5,0.7-2.1c0.4-0.6,1-1,1.8-1.4
			c0.8-0.3,1.7-0.6,2.7-0.7s2.2-0.2,3.4-0.2c1.2,0,2.3,0.1,3.4,0.2c1,0.1,1.9,0.3,2.7,0.6c0.8,0.3,1.4,0.8,1.8,1.3
			c0.4,0.6,0.6,1.3,0.6,2.3c0,0.9-0.2,1.7-0.6,2.2c-0.4,0.6-1,1-1.8,1.3c-0.8,0.3-1.7,0.5-2.7,0.6
			C457.2,205.4,456.1,205.5,454.9,205.5z M462.3,214.3c0,0,0.1,0,0.2,0c0.1,0,0.2,0.1,0.3,0.2c0.1,0.1,0.2,0.2,0.3,0.3
			s0.2,0.3,0.2,0.4c0.1,0.6,0,1.1-0.3,1.5c-0.2,0.2-0.4,0.4-0.6,0.4c-0.2,0.1-0.3,0.1-0.3,0.1h-13.7c-0.6,0-1.1-0.1-1.5-0.3
			c-0.4-0.2-0.5-0.5-0.5-0.9v-2.2c0-0.4,0-0.7,0-1.1c0-0.4,0.2-0.6,0.4-0.9c0.2-0.2,0.5-0.3,0.9-0.3c0.1,0,0.2,0,0.3,0
			s0.3,0,0.3,0.1c0.2,0.1,0.4,0.2,0.5,0.3c0.1,0.1,0.2,0.3,0.3,0.5c0.1,0.2,0.1,0.4,0.1,0.6c0,0.2,0,0.4,0.1,0.6c0,0.1,0,0.3,0,0.4
			s0,0.3,0.1,0.4c0,0,0.2,0,0.5,0.1c0.3,0,0.7,0,1.3,0c0.5,0,0.9,0,1.3,0c0.4,0,0.6,0,0.6,0H462.3z M454.9,199.6
			c-0.6,0-1.2,0-1.8,0.1s-1.2,0.1-1.6,0.2c-0.5,0.1-0.9,0.3-1.2,0.5s-0.5,0.5-0.5,0.8c0,0.6,0.5,1,1.4,1.3s2.2,0.4,3.7,0.4
			c0.6,0,1.2,0,1.8,0c0.6,0,1.2-0.1,1.6-0.2s0.9-0.3,1.2-0.5c0.3-0.2,0.5-0.5,0.5-0.9c0-0.3-0.2-0.6-0.5-0.8s-0.7-0.4-1.2-0.5
			c-0.5-0.1-1-0.2-1.6-0.2S455.5,199.6,454.9,199.6z"/>
		<path class="st8" d="M471.9,208.5c-0.2-0.1-0.4-0.3-0.5-0.6c-0.1-0.3-0.2-0.7-0.1-1c0.1-0.3,0.2-0.6,0.4-0.9
			c0.2-0.3,0.4-0.6,0.7-0.9c0.3-0.3,0.5-0.5,0.7-0.8c0.3-0.4,0.6-0.7,0.8-1c0.3-0.4,0.5-0.7,0.8-1.1c0.2-0.3,0.4-0.6,0.6-1
			c0.2-0.4,0.3-0.8,0.4-1.1c0-0.1,0-0.2,0-0.4c0-0.2,0-0.3,0-0.5c0-0.2,0-0.3,0-0.5s0-0.3,0.1-0.4c0.1-0.3,0.3-0.6,0.5-0.7
			c0.2-0.1,0.6-0.2,1-0.2c0.3,0,0.6,0,0.9,0.1c0.3,0.1,0.6,0.3,0.7,0.5c0.1,0.3,0.2,0.6,0.1,1c0,0.4,0,0.7,0.1,1.1
			c0.1,0.3,0.2,0.5,0.4,0.8c0.2,0.3,0.3,0.5,0.5,0.8c0.3,0.4,0.6,0.9,1,1.5c0.3,0.5,0.6,1,0.9,1.3c0.3,0.4,0.5,0.7,0.8,1.1
			s0.4,0.8,0.5,1.2c0.1,0.4,0,0.7-0.1,0.9c-0.2,0.2-0.4,0.4-0.6,0.5s-0.6,0.1-0.9,0.1c-0.3-0.1-0.6-0.2-0.8-0.4
			c-0.6-0.6-1.2-1.3-1.7-2c-0.5-0.7-1-1.4-1.5-2.1c-0.3,0.3-0.6,0.6-0.8,0.9c-0.2,0.3-0.5,0.6-0.7,0.9c-0.3,0.3-0.5,0.6-0.8,0.9
			c-0.2,0.3-0.4,0.5-0.6,0.7s-0.3,0.3-0.3,0.4c-0.2,0.2-0.4,0.4-0.6,0.6s-0.5,0.3-0.8,0.4c-0.2,0-0.4,0-0.6,0
			S472.1,208.5,471.9,208.5z M488.3,214.2c0.2,0.1,0.4,0.1,0.5,0.2c0.1,0.1,0.3,0.2,0.4,0.3c0.1,0.1,0.2,0.3,0.2,0.4
			c0.1,0.6,0,1.1-0.3,1.5c-0.2,0.2-0.4,0.4-0.6,0.4c-0.2,0-0.4,0.1-0.4,0.1h-12.8c-0.7,0-1.2-0.1-1.6-0.3c-0.4-0.2-0.6-0.5-0.6-0.9
			v-3.5c0-0.2,0-0.4,0-0.7c0-0.3,0-0.6,0-0.7c0-0.3,0.2-0.6,0.5-0.8c0.3-0.2,0.6-0.3,1-0.3c0.1,0,0.2,0,0.3,0s0.2,0,0.3,0.1
			c0.2,0.1,0.4,0.2,0.5,0.3c0.1,0.2,0.2,0.3,0.3,0.5c0.1,0.2,0.1,0.4,0.1,0.6s0,0.4,0,0.6c0,0.1,0,0.2,0,0.4c0,0.2,0,0.4,0,0.7
			c0,0.2,0,0.5,0,0.7c0,0.2,0,0.3,0,0.4c0,0,0.2,0,0.4,0.1c0.2,0,0.6,0,1.3,0c0.5,0,1,0,1.4,0c0.4,0,0.6,0,0.7,0H488.3z M489,208
			c0,0.2-0.1,0.4-0.1,0.6s-0.1,0.3-0.2,0.5c-0.1,0.2-0.2,0.3-0.4,0.4c-0.2,0.1-0.5,0.2-0.7,0.2c-0.3,0-0.6-0.1-0.8-0.3
			c-0.2-0.1-0.3-0.3-0.4-0.5c-0.1-0.3-0.2-0.5-0.3-0.8c0-0.3-0.1-0.6-0.1-0.9c0-0.3,0-0.6,0-0.9c0-0.3,0-0.6,0-0.9
			c0-0.3,0-0.8,0-1.2c0-0.5,0-0.9,0-1.4c0-0.5,0-1,0-1.4c0-0.5,0-0.9,0-1.2v-0.3c0-0.2,0-0.4,0-0.6c0-0.2,0-0.4,0.1-0.6
			c0.1-0.3,0.2-0.5,0.5-0.8c0.1-0.2,0.3-0.3,0.6-0.4c0.2-0.1,0.5-0.1,0.8-0.1c0.5,0.1,0.8,0.3,1,0.7c0.1,0.2,0.1,0.5,0.1,0.8
			c0,0.3,0,0.5,0,0.6V208z"/>
		<path class="st8" d="M500.8,197.7c1,0.6,1.7,1.3,2.1,2.2c0.4,0.9,0.6,2.1,0.5,3.4c-0.1,1.7-0.6,2.9-1.4,3.8
			c-0.4,0.4-0.8,0.6-1.3,0.8c-0.5,0.2-1.1,0.3-1.6,0.4c-0.6,0.1-1.1,0.1-1.7,0.1c-0.6,0-1.1-0.1-1.6-0.1c-0.2,0-0.3-0.1-0.5-0.1
			s-0.3-0.1-0.5-0.1c-0.4-0.1-0.7-0.4-1.1-0.6c-0.8-0.5-1.4-1.2-1.6-2c-0.3-0.8-0.5-1.7-0.5-2.5s0.2-1.7,0.5-2.5
			c0.1-0.4,0.3-0.7,0.6-1.1s0.6-0.6,1-0.9c0.6-0.5,1.2-0.8,2-1.1c0.7-0.2,1.5-0.3,2.2-0.2c0.2,0,0.3,0,0.5,0c0.1,0,0.3,0,0.4,0
			c0.1,0,0.2,0,0.3,0c0.1,0,0.2,0,0.3,0.1c0.2,0.1,0.5,0.1,0.7,0.2C500.3,197.5,500.5,197.6,500.8,197.7z M496.3,217.4
			c-0.1,0-0.2,0-0.4,0c-0.1,0-0.2,0-0.4,0c-0.1,0-0.2,0-0.3,0c-0.4,0-0.7-0.2-1-0.4c-0.1-0.1-0.2-0.2-0.2-0.2
			c-0.1-0.1-0.1-0.2-0.2-0.3c0-0.1-0.1-0.2-0.1-0.3c0-0.1-0.1-0.2-0.1-0.3s-0.1-0.2-0.1-0.4s0-0.2,0-0.3c0-0.1,0-0.1,0-0.2v-0.1v-2
			V212c0-0.2,0-0.4,0-0.6c0-0.2,0-0.4,0-0.7c0-0.2,0.1-0.4,0.2-0.6s0.2-0.3,0.4-0.5c0.1-0.1,0.3-0.2,0.6-0.3s0.5-0.1,0.7-0.1
			c0.2,0,0.4,0.1,0.6,0.2c0.2,0.1,0.3,0.3,0.3,0.5c0,0.1,0.1,0.3,0.1,0.4s0,0.3,0,0.4c0,0.1,0,0.1,0,0.2c0,0.1,0,0.1,0,0.2v0.1h0.1
			c0,0,0.1,0,0.1,0c0,0,0.1,0,0.2,0h9.6v-0.9c0-0.3,0.1-0.5,0.2-0.8c0.1-0.2,0.4-0.4,0.6-0.4c0.2,0,0.5-0.1,0.8-0.1s0.5,0.1,0.7,0.2
			c0.3,0.2,0.5,0.4,0.6,0.7c0.1,0.3,0.2,0.6,0.2,1c0,0.4,0,0.7,0,1.1c0,0.4,0,0.7,0,1.1c0,0.3,0,0.7,0,1.2s-0.1,0.9-0.2,1.4
			c-0.1,0.4-0.3,0.8-0.5,1.1c-0.3,0.3-0.6,0.5-1.1,0.5H496.3z M500.5,203.6c0-0.4,0-0.7-0.1-1.1c0-0.3-0.1-0.6-0.2-0.9
			c-0.1-0.2-0.1-0.3-0.2-0.4s-0.2-0.2-0.3-0.3c-0.1-0.1-0.2-0.2-0.4-0.3c-0.1-0.1-0.3-0.2-0.5-0.3c-0.3-0.1-0.8-0.2-1.3-0.2
			c-0.2,0-0.5,0-0.7,0.1s-0.4,0.1-0.6,0.2c-0.4,0.1-0.7,0.4-1.1,0.7c-0.3,0.3-0.5,0.7-0.5,1.3c0,0.4,0,0.8,0,1.1
			c0,0.4,0.1,0.7,0.3,1c0.1,0.1,0.2,0.3,0.3,0.4c0.1,0.1,0.3,0.2,0.5,0.4c0.3,0.2,0.7,0.3,1.3,0.4c0.2,0,0.4,0,0.5,0
			c0.2,0,0.4,0,0.5,0c0.4,0,0.7-0.2,1-0.3c0.2-0.1,0.3-0.1,0.4-0.3c0.1-0.1,0.3-0.2,0.4-0.3C500.3,204.3,500.4,204,500.5,203.6z
			 M505.9,215.1c0.3,0,0.4,0,0.5-0.1s0.1-0.3,0.1-0.7c0-0.3-0.1-0.4-0.3-0.4c-0.2,0-0.4,0-0.6,0H505h-1.1h-2c-0.5,0-1.1,0-1.6,0
			s-1.1,0-1.6,0c-0.1,0-0.3,0-0.5,0c-0.2,0-0.5,0-0.7,0s-0.4,0-0.6,0.1s-0.3,0.1-0.3,0.2c0,0.4,0,0.6,0.1,0.8
			c0.1,0.1,0.4,0.2,0.7,0.2c0.4,0,0.7,0,1.1,0c0.4,0,0.7,0,1.1,0c0.9,0,1.8,0,2.5,0c0.8,0,1.6,0,2.5,0H505.9z M509.6,206.7
			c0,0.1-0.1,0.2-0.1,0.3c0,0.1,0,0.2-0.1,0.3c0,0.1-0.1,0.2-0.1,0.2c0,0.1-0.1,0.1-0.1,0.2c-0.1,0.2-0.2,0.3-0.4,0.4
			c-0.2,0.1-0.5,0.2-0.7,0.2c-0.3,0-0.6-0.1-0.8-0.3c-0.1,0-0.2-0.1-0.3-0.2c-0.1-0.1-0.1-0.2-0.2-0.3c-0.1-0.3-0.2-0.5-0.2-0.9
			c0,0,0-0.2,0-0.5c0-0.3,0-0.7,0-1.2c0-0.5,0-1,0-1.5c0-0.5,0-1.1,0-1.5s0-0.9,0-1.3s0-0.6,0-0.8V199c0-0.2,0-0.4,0.1-0.6
			c0-0.3,0.2-0.5,0.5-0.8c0.1-0.2,0.3-0.3,0.6-0.4c0.3-0.1,0.5-0.1,0.8-0.1c0.3,0.1,0.5,0.1,0.7,0.3c0.2,0.1,0.3,0.3,0.3,0.5
			c0.1,0.2,0.1,0.4,0.1,0.6c0,0.2,0,0.5,0,0.7V206.7z"/>
	</g>
	<g>
		<path class="st8" d="M294.2,239.6c-0.2,0.2-0.6,0.4-1,0.5c-1,0.4-2.1,0.5-3.4,0.4c-1.2-0.1-2.4,0-3.5,0.1c0.1,0.7,0.2,1.3,0.2,1.9
			c0,0.6,0,1,0,1.4v30.4c0,0,0.3,0,0.8,0c0.5,0,1.1,0.1,1.7,0.2c0.6,0.1,1.2,0.2,1.8,0.3c0.6,0.1,0.9,0.1,1,0.1
			c1.4,0.2,2.4,0.5,3,0.9c0.7,0.4,0.9,1.3,0.8,2.7c-0.1,1.2-0.4,2.1-0.8,2.6c-0.5,0.5-1,0.9-1.8,1.1c-0.7,0.2-1.6,0.3-2.5,0.3
			c-0.9,0-1.9,0-3,0c-1.4,0-2.8,0.1-4.2,0c-1.4,0-2.8,0-4.1,0c-2.1,0-4.2,0-6,0c-1.9,0-3.9,0-6,0.1c-1.5,0-2.9,0-4.3,0
			s-2.9,0-4.3-0.1c-0.7,0-1.5,0-2.4-0.1c-0.9-0.1-1.8-0.3-2.7-0.6c-0.9-0.3-1.6-0.7-2.2-1.2s-1-1.2-1.1-2c-0.2-1.1,0.1-1.9,0.8-2.5
			c0.7-0.5,1.5-0.9,2.5-1.2c1-0.2,2.1-0.4,3.3-0.4c1.2,0,2.1-0.1,2.9-0.2c-0.1-0.9-0.1-1.8,0-2.6c0-0.9,0-1.7,0-2.6V245
			c0-0.1,0-0.6-0.1-1.4c-0.1-0.8-0.1-1.8,0-2.9c-0.8,0-1.7-0.1-2.5-0.1c-0.8,0-1.7-0.1-2.5-0.2c-0.8-0.1-1.6-0.4-2.2-0.7
			c-0.7-0.4-1.2-0.9-1.6-1.7c-0.7-1.1-0.7-2.1-0.1-3.1c0.6-1,1.5-1.7,2.8-2.1c1.3-0.4,2.7-0.6,4.2-0.7c1.5-0.1,3-0.1,4.3-0.1
			c4.5,0,8.8,0,13,0c4.2,0,8.5,0,13,0c1.1,0,2.3,0.1,3.7,0.3c1.3,0.2,2.4,0.7,3.2,1.5c0.8,0.8,1.2,1.8,1.1,3
			C295.7,238,295.2,239,294.2,239.6z M269.3,245.7c0.1,0.4,0.1,0.7,0.1,0.9c0,0.2,0,0.5,0,0.7l-0.2,24.9c0,0.1,0,0.4,0.1,0.9
			c0.1,0.4,0.2,0.8,0.5,1.2h6.8v-27.2c0-1,0-1.7,0-2.4c0-0.6-0.1-1.2-0.1-1.9c0-0.6-0.1-1.1-0.1-1.4c0-0.3-0.1-0.5-0.3-0.8h-6.2
			c-0.2,0.2-0.4,0.5-0.4,0.8c-0.1,0.4-0.2,1-0.2,1.9C269.2,244.3,269.3,245,269.3,245.7z M301.5,262.3c-0.8-0.1-1.6-0.2-2.3-0.2
			c-0.8,0-1.5-0.1-2.3-0.2c-1,0-1.9-0.2-2.7-0.6c-0.9-0.3-1.6-0.8-2.2-1.3c-0.6-0.5-1-1.2-1.3-1.9c-0.2-0.8-0.2-1.6,0.1-2.5
			c0.1-0.4,0.4-0.8,0.7-1.2c0.4-0.4,0.7-0.8,1.1-1c0.8-0.5,1.6-0.8,2.4-0.9c0.9-0.1,2-0.1,3.2-0.1c1.3,0,2.4,0,3.3-0.1h0.3v-0.3
			c0.1-1.2,0.1-2.2,0.1-3c0-0.8,0-1.9-0.1-3.1c0-1.2,0-2.5,0-3.7c0-1.2,0-2.4,0-3.6v-1c0-0.6,0-1.3,0-2c0-0.7,0.1-1.5,0.2-2.2
			c0.1-0.7,0.3-1.4,0.6-2.1c0.3-0.6,0.7-1.2,1.2-1.6c0.8-0.6,1.7-0.9,2.7-0.9h0.2c1.4,0,2.4,0.4,3.3,1c0.8,0.6,1.4,1.4,1.9,2.3
			c0.4,0.9,0.7,1.8,0.8,2.8c0.1,1,0.2,1.8,0.2,2.6v42.8c0,0,0,0.3,0,0.7c0,0.4-0.1,0.9-0.2,1.5c-0.1,0.6-0.3,1.1-0.5,1.7
			c-0.2,0.6-0.6,1-1.1,1.4c-0.4,0.3-1,0.6-1.7,0.8c-0.7,0.2-1.4,0.3-2,0.3c-1.3,0-2.4-0.4-3.2-1.1c-0.7-0.7-1.2-1.4-1.3-2.1
			c-0.2-0.7-0.3-1.5-0.4-2.3c0-0.1,0-0.3,0-0.4s0-0.3,0-0.5c-0.1-0.8-0.2-1.6-0.2-2.4s0-1.7-0.1-2.6c-0.1-0.5-0.1-1-0.1-1.5
			c0-0.5,0-1,0-1.5v-1.6c0-1,0-2.1,0-3.4c0-1.3,0-2.4,0-3.4c0-0.2,0-0.5,0-0.8S301.6,262.5,301.5,262.3z"/>
		<path class="st8" d="M326.7,254.1c0.9-0.1,1.8-0.1,2.7,0c0.9,0.1,1.9,0.1,2.9,0c3.1-0.1,6.1-0.1,9-0.1c2.9,0,6.1,0.1,9.5,0.1
			c3.8,0,7.6,0,11.5-0.1c3.9,0,7.8,0,11.9,0.1h0.4c1.2,0,2.3,0,3.5,0c1.1,0,2.3,0.2,3.4,0.5c0.8,0.2,1.5,0.7,1.9,1.3
			c0.4,0.6,0.7,1.3,0.7,1.9c0,1-0.5,1.9-1.6,2.6c-1,0.6-2.1,0.9-3.3,0.9c-1.3,0-2.5,0-3.7,0h-49c-1,0-1.7,0-2.4-0.1
			c-0.6-0.1-1.3-0.2-1.9-0.4c-0.7-0.2-1.2-0.4-1.6-0.7c-0.4-0.2-0.7-0.6-0.8-1.1c-0.2-0.5-0.3-1-0.3-1.4c0-0.9,0.4-1.6,1.2-2.1
			c0.7-0.5,1.5-0.9,2.3-1c0.8-0.2,1.7-0.3,2.7-0.3c0.2,0,0.3-0.1,0.5,0C326.4,254.1,326.5,254.1,326.7,254.1z M376.2,280.7
			c0.9,0.1,1.7,0.3,2.4,0.6s1.2,0.8,1.4,1.6c0.7,1.7-0.1,2.9-2.2,3.6c-0.7,0.2-1.3,0.4-2,0.4c-0.7,0-1.3,0.1-1.9,0.1h-39.2
			c-1.1,0-2.3,0-3.5,0c-1.2,0-2.4-0.1-3.7-0.1c-1.2,0-2.2-0.4-3-1.1c-0.8-0.7-1.2-1.5-1.4-2.6l-0.3-5c-0.1-0.5-0.1-1.1,0-1.9
			c0.1-0.7,0.3-1.3,0.8-1.8c0.8-0.7,1.8-1.2,3.2-1.4c1.3-0.2,2.6-0.3,3.8-0.3c0.8,0,2.1,0,3.9,0c1.8,0,4.3,0,7.5,0c3.2,0,7,0,11.7,0
			c4.6,0,10.2,0,16.6,0v-2.6h-41.5c-0.6,0-1.1,0-1.5,0c-0.5,0-0.9,0-1.4-0.1c-0.5-0.1-1-0.2-1.3-0.3c-0.4-0.1-0.7-0.3-1-0.7
			c-0.8-1-1-2-0.6-3.1c0.2-0.4,0.4-0.7,0.8-0.9c0.3-0.2,0.7-0.4,1.2-0.5s0.9-0.2,1.3-0.3c0.4,0,0.8-0.1,1.1-0.1
			c0.8-0.1,1.7-0.2,2.6-0.2c0.8,0,1.7,0,2.7,0c1,0,2.1,0,3.5,0c1.4,0,3,0,4.9,0c1.9,0,4.3,0,7,0c2.8,0,6,0,9.8,0c3.7,0,8.1,0,13.2,0
			c2.9,0,5.1,0.4,6.6,1.1c1.5,0.7,2.3,1.9,2.3,3.6v5.1c0,0.7-0.2,1.3-0.5,2c-0.4,0.6-1,1.2-1.9,1.6c-0.7,0.4-1.5,0.6-2.2,0.6
			c-0.7,0-1.5,0-2.2,0h-40v2.6H376.2z M326.9,249.7c-0.6-0.4-1.1-1-1.5-1.6c-0.4-0.6-0.6-1.3-0.8-1.9c-0.2-0.6-0.3-1.2-0.3-1.7
			c-0.1-0.5-0.1-0.7-0.1-0.8v-11.3c0-0.9,0.3-1.8,0.8-2.7c0.5-0.9,1.4-1.4,2.7-1.5c0.6,0,1.2,0,1.9,0c0.7,0.1,1.3,0.2,1.9,0.4
			c0.6,0.2,1.1,0.5,1.5,0.9c0.4,0.4,0.7,0.9,0.8,1.5c0.1,0.4,0.1,0.9,0,1.5c-0.1,0.5,0,1,0.2,1.5c0.1,0.2,0.4,0.3,0.8,0.3
			c0.4,0,0.8,0,1.1,0c1.3,0.1,2.6,0.1,3.9,0c1.3-0.1,2.7-0.1,4-0.1h23.3c0.5,0,0.9,0,1.2,0.1c0.6,0,1.1,0,1.4,0
			c0.3,0,0.7-0.1,1.3-0.2c0.1-0.4,0.2-0.8,0.2-1.1c0-0.4,0-0.8,0-1.1c0.1-0.9,0.3-1.6,0.7-2.3c0.4-0.7,1.1-1.1,2.1-1.3
			c2-0.3,3.5-0.1,4.7,0.7c1.2,0.8,1.7,2.1,1.7,3.8c-0.1,2.1,0,4.3,0,6.6c0.1,2.2,0,4.4-0.2,6.6c-0.1,0.7-0.3,1.2-0.5,1.6
			c-0.2,0.4-0.6,0.9-1,1.5c-0.5,0.5-1,0.9-1.8,1.2c-0.7,0.3-1.5,0.4-2.4,0.5c-0.8,0.1-1.7,0.1-2.5,0.1s-1.6,0-2.3,0
			c-0.9,0-1.7,0.1-2.3,0.1c-0.6,0-1.3,0-1.8,0c-0.6,0-1.2,0-1.8,0c-0.6,0-1.4,0-2.3,0c-1.4,0-2.6,0-3.7,0c-1.1,0-2.2,0-3.2,0
			c-1.1,0-2.2,0-3.3,0c-1.1,0-2.4,0-3.7,0c-1,0-1.9,0-2.9,0.1c-1,0-1.9,0.1-2.9,0.1c-2.7,0-5.4,0-8,0c-1.2,0-2.4-0.1-3.6-0.2
			S327.8,250.3,326.9,249.7z M334,243.3c0.1,0.4,0.4,0.7,0.8,0.9c0.4,0.2,0.9,0.3,1.4,0.3c0.5,0,1.1,0.1,1.6,0c0.6,0,1,0,1.4,0
			c1.6,0,3.1,0,4.7,0c1.5,0,3.1,0,4.6,0c1.1,0,2,0,2.8,0c0.8,0,1.6,0,2.3,0c0.8,0,1.5,0,2.4,0c0.8,0,1.8,0,2.8,0
			c0.6,0,1.1-0.1,1.7,0c0.6,0,1.2,0,1.8,0c0.4,0,0.9,0,1.3-0.1c0.4,0,0.9,0,1.3,0c0.4,0.1,0.9,0.1,1.4,0.1c0.5,0,0.9,0,1.4,0
			c0.3,0,0.6,0.1,1,0.1c0.4,0,0.8,0,1.1,0c0.3,0,0.6-0.1,0.8-0.3c0.2-0.2,0.3-0.5,0.3-0.9c0-0.4,0-0.7,0.1-0.9
			c0.1-0.2-0.1-0.5-0.4-0.9c-0.5-0.4-0.9-0.6-1.4-0.6c-0.5,0-1,0-1.6,0h-12.7c-0.2,0-0.9,0-2.2,0c-1.3,0-2.7,0-4.2,0
			c-1.5,0-2.9,0-4.2,0c-1.3,0-2,0-2.2,0c-0.5,0-1.2,0-2.2-0.1c-1-0.1-1.9-0.1-2.8-0.1c-0.9,0-1.7,0.2-2.3,0.5c-0.6,0.3-1,0.7-1,1.5
			c0,0.2,0,0.4,0,0.4C333.9,243,333.9,243.1,334,243.3z"/>
		<path class="st8" d="M402,262.4c-0.6,0.1-1,0.3-1.2,0.6c-0.2,0.3-0.4,0.6-0.4,1c-0.1,0.4-0.1,0.8,0,1.1c0.1,0.4,0.1,0.7,0.1,1.1
			c0,0.3,0,0.7,0,1.1c0,0.5,0,0.9,0,1.4s0,1,0,1.5c0,0.5,0.1,0.9,0.1,1.2c0,0.3,0,0.7,0,1.2c0,0.5,0.1,0.9,0.4,1.1
			c0,0.1,0.1,0.2,0.2,0.2c0.1,0,0.2,0.1,0.3,0.1c1.3,0,2.7,0,4.3,0c1.6,0,3,0,4.3-0.1c2,0,4,0,6.2,0c2.2,0,4.2,0,6.2,0.2
			c0.8,0.1,1.4,0.3,1.8,0.5c0.4,0.2,0.8,0.5,1.1,0.9c0.3,0.4,0.6,0.8,0.7,1.2c0.1,0.5,0.2,0.9,0.2,1.5c0.1,0.6,0.1,1.1-0.1,1.6
			c-0.2,0.5-0.4,0.9-0.7,1.2c-0.3,0.3-0.6,0.5-1,0.7c-0.4,0.2-0.8,0.4-1.2,0.7c-1.1,0.4-2.2,0.6-3.3,0.6c-1.1,0-2.2,0-3.4,0.1
			c-1,0-2.2,0-3.5,0.1c-1.3,0-2.5,0-3.5-0.1c-0.8-0.1-1.8-0.1-2.8-0.1c-1,0-2,0.1-2.7,0.1c-0.8-0.1-1.5-0.1-2.3-0.1
			c-0.7,0-1.5,0.1-2.3,0.1c-1.3-0.1-2.7-0.2-4.1-0.4s-2.6-0.5-3.7-1.2c-0.8-0.4-1.4-1-1.8-1.9c-0.3-0.6-0.6-1.2-0.8-1.9
			s-0.2-1.4-0.1-2.1c0.1-1,0.1-2.2,0-3.5c0-1.3-0.1-2.5-0.1-3.8s-0.1-2.6-0.1-3.8c0-1.3,0-2.5,0-3.6c0-0.9,0-1.8,0-2.7
			c0-1,0.2-1.8,0.7-2.5c0.5-0.7,1.1-1.2,1.7-1.5c0.6-0.3,1.3-0.5,2-0.6c0.7-0.1,1.4-0.1,2.2-0.1c0.8,0,1.5,0,2.3,0h7.8
			c0.3,0,0.8,0,1.4,0s1.2,0,1.8,0c0.6,0,1.2,0,1.9-0.1c0.6,0,1.1-0.1,1.4-0.2c0.5-0.1,0.8-0.4,1-0.9c0.3-1.2,0.4-2.6,0.5-4.1
			c0-1.5,0-2.8-0.1-4.1c0-0.5,0-1.2,0-2c0-0.8-0.2-1.4-0.5-1.9c-0.4-0.5-1.3-0.7-2.6-0.7l-15.7,0.1c-0.8,0-1.7-0.1-2.6-0.2
			c-1-0.2-1.7-0.5-2.2-1c-0.2-0.2-0.3-0.5-0.5-0.7c-0.2-0.2-0.3-0.5-0.5-0.9c-0.5-1.3-0.3-2.4,0.4-3.5c0.7-1,1.8-1.7,3.4-2
			c1.4-0.2,2.7-0.3,4.1-0.2s2.7,0.1,4.1,0h12.7c1.1,0,2.3,0,3.5,0s2.3,0.1,3.5,0.4c1.2,0.3,2.2,1,3,2.1c0.1,0.2,0.2,0.5,0.3,0.6
			c0.1,0.2,0.1,0.4,0.3,0.7c0.1,0.2,0.2,0.5,0.3,0.6c0.1,0.2,0.1,0.4,0.1,0.6c0.1,0.8,0.2,1.8,0.2,2.9c0,1.1,0,2,0,2.7
			c0,1.5,0,3.1,0.1,4.8c0.1,1.7,0.1,3.3,0.1,4.8c0,1.6,0,3.1,0,4.6c0,1.5-0.3,2.8-0.8,3.8c-0.6,1-1.3,1.6-2.4,1.9
			c-1,0.4-2,0.5-3.1,0.5c-1.1,0-2.2-0.1-3.1-0.1c-0.6,0-1.3,0-2.2,0c-0.8,0-1.7,0-2.5,0s-1.6,0-2.4,0c-0.8,0-1.4,0-1.9,0
			c-0.5,0-0.8,0-1.1,0c-0.3,0-0.6,0-0.8-0.1c-0.3,0-0.5,0-0.8,0C402.8,262.4,402.4,262.4,402,262.4z M448,279.8
			c-0.1,0.6-0.2,1.1-0.3,1.7c-0.1,0.5-0.2,1.1-0.4,1.7c-0.1,0.2-0.2,0.4-0.3,0.5c-0.1,0.1-0.1,0.3-0.3,0.5c-0.4,0.7-0.9,1.2-1.5,1.6
			c-1.3,0.7-2.7,0.8-4.3,0.5c-0.9-0.1-1.6-0.4-2.2-0.9c-0.5-0.4-0.9-0.9-1.1-1.5c-0.3-0.6-0.5-1.2-0.6-1.7c-0.1-0.6-0.2-1.1-0.2-1.5
			s0-0.7,0-0.7v-42c0-0.6,0-1.2,0-1.9c0-0.7,0.1-1.3,0.2-2c0.1-0.7,0.3-1.3,0.5-1.9s0.5-1,0.9-1.4c0.6-0.5,1.3-0.8,1.9-1
			c0.7-0.1,1.4-0.2,2.2-0.2c1,0,1.8,0.2,2.7,0.7c0.8,0.5,1.4,1.1,1.7,1.9c0.5,1,0.8,2,0.8,3.1c0.1,1.1,0.1,2.2,0.2,3.3v0.4
			c0.1,3.7,0.1,7.1,0.1,10.2c-0.1,3.2-0.1,6.5-0.1,9.9v18c0,0.4,0,0.9,0,1.3C448.1,279,448,279.4,448,279.8z"/>
		<path class="st8" d="M489.3,275.2c0.2,0.2,0.3,0.5,0.5,0.7c0.1,0.3,0.3,0.6,0.4,0.9c0.2,0.5,0.3,1.1,0.3,1.7
			c0.1,0.6-0.1,1.3-0.5,1.9c-0.9,1.5-2.1,2.3-3.7,2.4h-0.1c-1,0-1.9-0.3-2.7-0.9c-0.8-0.6-1.6-1.3-2.4-2.1c-0.8-0.8-1.6-1.5-2.3-2.3
			c-0.7-0.8-1.3-1.4-1.9-2.1c-0.1-0.1-0.1-0.2-0.2-0.3c-0.1-0.1-0.2-0.3-0.3-0.5c-1.4-1.8-2.4-3.1-3.1-3.8c-0.7-0.7-1.1-1.1-1.2-1.1
			c-0.1,0.1-0.4,0.3-0.8,0.7c-0.4,0.4-0.7,0.7-0.8,0.7c-0.1,0.1-0.2,0.3-0.3,0.4c-0.1,0.1-0.2,0.2-0.3,0.3c-0.5,0.5-0.9,1-1.2,1.5
			c-0.3,0.5-0.7,1-1.1,1.5c-0.5,0.5-0.9,1-1.4,1.5c-0.5,0.5-1,1-1.5,1.4c-0.2,0.2-0.5,0.4-0.7,0.7c-0.8,0.8-1.7,1.6-2.7,2.4
			c-0.9,0.8-2,1.3-3.2,1.7c-0.5,0.2-1.1,0.3-1.7,0.3c-1.3,0-2.4-0.4-3.5-1.3c-1-0.8-1.4-1.8-1.4-3c0.1-0.9,0.3-1.7,0.8-2.4
			c0.5-0.8,0.9-1.5,1.4-2.1l0.2-0.3c0.2-0.2,0.3-0.5,0.5-0.6c0.2-0.2,0.3-0.4,0.5-0.6c0.1-0.1,0.2-0.3,0.3-0.4
			c0.1-0.1,0.2-0.2,0.3-0.3c0.7-0.9,1.3-1.5,1.8-2.1c0.1-0.1,0.2-0.2,0.2-0.3c0-0.1,0.1-0.2,0.2-0.2c0.1-0.2,0.2-0.3,0.3-0.4
			l0.2-0.2c0.2-0.2,0.4-0.5,0.6-0.7c0.2-0.2,0.3-0.4,0.5-0.7c0.4-0.5,0.7-1,1.1-1.5c0.3-0.5,0.6-0.9,0.9-1.3c0.3-0.5,0.7-1,1-1.5
			c0.3-0.5,0.7-1,1.2-1.5c0.3-0.4,0.6-0.8,0.9-1.1c0.3-0.4,0.6-0.8,0.9-1.1l0.3-0.4c0.4-0.5,0.7-1,0.9-1.4c0.2-0.4,0.3-0.9,0.4-1.4
			c0.1-0.8,0.2-1.5,0.2-2.2c0-0.7,0-1.5,0-2.4v-11.8c0-0.5,0-0.9,0-1.4s0-0.9,0.1-1.4c0-0.5,0.1-1,0.2-1.6c0.1-0.5,0.3-1,0.4-1.4
			c0.3-0.6,0.6-1.2,1.1-1.9c0.3-0.4,0.7-0.7,1.2-0.9c0.5-0.2,1.1-0.3,1.7-0.4l0.2-0.1c0.4-0.1,0.9-0.1,1.2-0.1
			c0.4,0,0.8,0.1,1.2,0.2c0.6,0.2,1,0.4,1.3,0.6c0.3,0.2,0.5,0.5,0.7,0.8c0.2,0.3,0.3,0.7,0.5,1.1c0.5,0.9,0.8,2.1,1,3.5
			c0.2,2,0.4,4.1,0.4,6.3c0.1,2.2,0.1,4.3,0.1,6.3c0.1,1.2,0.1,2.5,0.1,3.7c0,1.2,0.1,2.4,0.2,3.6c0.1,1,0.4,2,1,2.9
			c0.6,0.9,1.2,1.8,1.8,2.7c0.6,1,1.3,2.1,1.9,3.1c0.7,1,1.4,2,2.1,3c0.3,0.5,0.6,0.9,0.9,1.4c0.3,0.5,0.6,0.9,1,1.4
			c0.1,0.2,0.2,0.5,0.4,0.6c0.1,0.2,0.3,0.4,0.4,0.6c0.1,0.2,0.3,0.5,0.4,0.7c0.2,0.3,0.3,0.5,0.4,0.7l0.3,0.6L489.3,275.2z
			 M500.7,238.1c0-0.6,0-1.3,0-2c0-0.7,0.1-1.5,0.3-2.2c0.1-0.7,0.3-1.4,0.6-2.1c0.3-0.6,0.6-1.2,1.1-1.6c0.7-0.6,1.6-0.9,2.7-0.9
			h0.2c1.4,0,2.5,0.4,3.3,1c0.8,0.6,1.4,1.4,1.8,2.3c0.4,0.9,0.7,1.8,0.8,2.8c0.1,1,0.2,1.8,0.2,2.6v42.3c0,0,0,0.3,0,0.7
			c0,0.4-0.1,0.9-0.2,1.5c-0.1,0.6-0.3,1.1-0.5,1.7c-0.2,0.6-0.6,1-1.1,1.4c-0.4,0.3-1,0.6-1.7,0.8c-0.7,0.2-1.4,0.3-2,0.3
			c-1.3,0-2.4-0.4-3.2-1.1c-0.7-0.7-1.2-1.3-1.4-2s-0.4-1.4-0.5-2.2c0-0.4,0-1.1,0-2.1c0-1,0-2.1,0-3.2c0-1.2,0-2.3,0-3.4
			c0-1.1,0-2,0-2.7h-7.5c-1.3,0-2.3-0.2-3-0.5c-0.7-0.3-1.2-0.8-1.5-1.3c-0.2-0.3-0.3-0.6-0.5-0.9c-0.1-0.3-0.2-0.6-0.2-1
			c0-0.3,0-0.6,0-0.9c0-0.2,0.1-0.5,0.2-0.9c0.1-0.4,0.3-0.8,0.4-1.2c0.2-0.4,0.4-0.8,0.8-1c0.7-0.5,1.5-0.8,2.4-0.9
			c0.4,0,1.1-0.1,1.9-0.1c0.8,0,1.6-0.1,2.4-0.1c0.8,0,1.7,0,2.5-0.1c0.8,0,1.4-0.1,1.9-0.1c0-0.7,0-1.7,0-3.1c0-1.4,0-2.8-0.1-4.4
			l-7.3-0.1c-1.1,0-2-0.2-2.9-0.4c-0.8-0.2-1.4-0.5-1.7-1.1c-0.4-0.7-0.6-1.3-0.6-1.9c0-0.3,0-0.6,0-0.9c0-0.2,0.1-0.5,0.2-0.9
			c0.1-0.4,0.3-0.8,0.4-1.1c0.2-0.4,0.4-0.7,0.8-0.9c0.7-0.5,1.5-0.8,2.4-0.9c0.3,0,0.8-0.1,1.5-0.1c0.6,0,1.4,0,2.2-0.1
			c0.8,0,1.7,0,2.6-0.1c0.9,0,1.7-0.1,2.4-0.1c0-1.6,0-3,0-4.2C500.6,239.4,500.7,238.5,500.7,238.1z"/>
	</g>
</g>
<g id="Layer_3">
	<g>
		<path class="st9" d="M373.5,201.4c-0.4-0.9-0.9-1.8-1.6-2.7c-3.1-4-8.2-5.3-8.2-5.3s-0.1,5.3,2.9,9.3c1.8,2.3,4.2,3.7,5.9,4.5
			C372.5,206,372.5,203.7,373.5,201.4z"/>
		<path class="st10" d="M380.1,195.2c0,0-4,1.5-6,5.1c-0.2,0.4-0.4,0.8-0.6,1.2c-0.6,1.5-0.9,3.1-0.9,4.3c0,0,0,0.1,0,0.1v11
			c0,0.4,0.3,0.7,0.7,0.7s0.7-0.3,0.7-0.7v-9.4c0.3-0.2,0.6-0.3,0.9-0.5c1.3-0.8,2.8-2.1,3.9-3.9
			C380.7,199.4,380.1,195.2,380.1,195.2z"/>
	</g>
</g>
</svg>
