<?xml version="1.0" encoding="utf-8"?>
<!-- Generator: Adobe Illustrator 25.4.1, SVG Export Plug-In . SVG Version: 6.00 Build 0)  -->
<svg version="1.1" xmlns="http://www.w3.org/2000/svg" xmlns:xlink="http://www.w3.org/1999/xlink" x="0px" y="0px"
	 viewBox="0 0 800 300" style="enable-background:new 0 0 800 300;" xml:space="preserve">
<style type="text/css">
	.st0{fill:#A76D47;}
	.st1{fill:#BC8B69;}
	.st2{fill:#CF9A76;}
	.st3{fill:#EFEFEF;}
	.st4{fill:#FFFFFF;}
	.st5{fill:none;stroke:#FFABDF;stroke-width:3;stroke-linecap:round;stroke-miterlimit:10;}
	.st6{fill:none;stroke:#B3FFBE;stroke-width:3;stroke-linecap:round;stroke-miterlimit:10;}
	.st7{fill:none;stroke:#AEE6FF;stroke-width:3;stroke-linecap:round;stroke-miterlimit:10;}
</style>
<g id="Layer_1">
</g>
<g id="Layer_2">
</g>
<g id="Layer_4">
	<g id="Layer_3">
		<path class="st0" d="M351.8,75c-0.7,0-1.4,0.1-2.2,0.3c-13.9,3-34.8,33.5-34.8,70.7c0,12.1,2.2,23.4,5.6,33.4
			c7.2,20.7,19.7,35.3,29.2,37.3c0.8,0.2,1.5,0.3,2.2,0.3c13.8,0,25-31.8,25-71S365.6,75,351.8,75z"/>
		<path class="st1" d="M346.3,216.7c1,0.2,1.9,0.3,2.9,0.1c-1.5-0.2-3-0.4-4.5-0.5L346.3,216.7z"/>
		<path class="st1" d="M320.5,179.4c-3.4-10-5.6-21.3-5.6-33.4c0-1.7,0.1-3.3,0.1-5c1.7-34.9,21.4-62.9,34.7-65.8
			c-1.1-0.2-2.2-0.2-3.3,0.1l-48.5,11.9c-14.2,16-42,54.6-38.3,108.2l49.1,12l7.2,1.8l28.9,7.1c1.5,0.2,3,0.4,4.5,0.5
			c0.2,0,0.3,0,0.5-0.1C340.2,214.7,327.7,200.1,320.5,179.4z"/>
		<path class="st2" d="M175.7,117.1l-43.7,10.7c-5,7.9-12.6,21.7-12.8,33.2l38,9.3C152.2,147.1,167.2,126.6,175.7,117.1z"/>
		<path class="st1" d="M99.5,135.8c-2.3,4.9-5.6,12.6-6,19l25.7,6.3c0.3-11.5,7.9-25.3,12.8-33.2L99.5,135.8z"/>
		<path class="st2" d="M88.4,138.5c-7.8,1.9-7.8,13,0,15l5.2,1.3c0.4-6.3,3.7-14.1,6-19L88.4,138.5z"/>
		<path class="st1" d="M232.1,103.3l-56.4,13.8c-8.6,9.5-23.5,29.9-18.5,53.2l45,11C196.7,146.7,224.2,112.4,232.1,103.3z"/>
		<path class="st2" d="M297.8,87.2l-65.7,16.1c-7.9,9.1-35.4,43.4-29.9,78.1l57.3,14C255.8,141.8,283.6,103.3,297.8,87.2z"/>
		<path class="st3" d="M355.5,131c-0.2,0-0.5,0-0.7,0c-15.4,0-29.2,3.6-39.9,10c-0.1,1.6-0.1,3.3-0.1,5c0,12.1,2.2,23.4,5.6,33.4
			c2,5.7,4.4,11,7,15.7C325.6,164.3,343.2,142.4,355.5,131z"/>
		<path class="st4" d="M708.5,199.2c-8.5-20.9-38.9-34.3-67.6-36c-5.2-6.1-14-10.2-24.1-10.2c-3.1,0-6.2,0.4-9,1.1
			c-15.4-11.3-15.8-8.7-36.7-8.2C569,118.4,536,90.5,503,87.8c-35.2-2.8-54.8,21.6-68.1,47.7c-0.1,0.2-0.2,0.4-0.3,0.6
			c-13.3,0.2-25.6,3.7-35.7,9.6c-11.3-9-26.6-14.5-43.5-14.7c-12.3,11.4-29.9,33.3-28,64c6.9,12.2,15.3,20.2,22.1,21.7
			c-0.2,0-0.3,0-0.5,0.1c0.6,0.1,1.1,0.1,1.7,0.2c17.6,2,34.6,1.1,47.2-4c10.6,0.9,23.7,0,37.8,0c18,0,34.3,2.9,45.9,1.9
			c4.5,1,9.1,0.8,13-0.9c0.7-0.3,1.4-0.6,2.1-1.1c21.5-13.7,23.9,6.1,46.1,6.8c6.8,2.1,14.2,3.2,21.9,3.2c7.4,0,15.6-1.6,23.6-4.2
			c13.9-2.5,29.1-5.8,42.4-5.8c22.3,0,48.2,10.8,64.4,11.5c8.2,1.3,19.6,0.2,21.7-6.8C719.1,210,715.4,202.1,708.5,199.2z"/>
		<line class="st5" x1="492.3" y1="100.7" x2="497.7" y2="96.3"/>
		<line class="st6" x1="421.3" y1="152.7" x2="426.7" y2="148.3"/>
		<line class="st7" x1="442.3" y1="166.7" x2="447.7" y2="162.3"/>
		<line class="st5" x1="502.8" y1="113.8" x2="505.2" y2="107.2"/>
		<line class="st5" x1="385.8" y1="159.5" x2="382.3" y2="153.5"/>
		<line class="st6" x1="518.8" y1="106.5" x2="515.3" y2="100.5"/>
		<line class="st5" x1="585.5" y1="160" x2="586.5" y2="153"/>
		<line class="st7" x1="473.8" y1="113.5" x2="470.3" y2="107.5"/>
		<line class="st7" x1="532.5" y1="117" x2="533.5" y2="110"/>
		<line class="st7" x1="628.8" y1="175.5" x2="625.3" y2="169.5"/>
		<line class="st6" x1="665.8" y1="178.5" x2="662.3" y2="172.5"/>
	</g>
</g>
</svg>
