<?xml version="1.0" encoding="utf-8"?>
<!-- Generator: Adobe Illustrator 25.4.1, SVG Export Plug-In . SVG Version: 6.00 Build 0)  -->
<svg version="1.1" id="Layer_1" xmlns="http://www.w3.org/2000/svg" xmlns:xlink="http://www.w3.org/1999/xlink" x="0px" y="0px"
	 viewBox="0 0 85 40" style="enable-background:new 0 0 85 40;" xml:space="preserve">
<style type="text/css">
	.st0{fill:#FFFFFF;}
</style>
<g>
	<path class="st0" d="M34.1,12.5c0,0,0,0.1,0,0.1s0,0.1,0,0.2c0,0.1,0,0.2-0.1,0.3c0,0-0.1,0.1-0.1,0.1c0,0-0.1,0.1-0.1,0.1
		c-0.2,0.1-0.4,0.2-0.6,0.1c-0.1,0-0.2-0.1-0.3-0.2c0,0,0,0,0,0c0,0,0,0,0,0c0,0,0,0,0,0s0,0,0,0c0,0-0.1-0.1-0.1-0.1
		c0,0,0-0.1-0.1-0.1c0,0,0-0.1-0.1-0.1c0,0,0-0.1-0.1-0.1c0,0,0-0.1,0-0.1c0,0,0-0.1,0-0.1c0-0.1-0.1-0.1-0.1-0.2l-0.3-0.6
		c-0.6,0-1.1,0-1.7,0c-0.5,0-1.1,0-1.7,0l-0.3,0.6c0,0,0,0.1,0,0.1c0,0,0,0.1,0,0.1c0,0,0,0.1,0,0.1c0,0,0,0.1,0,0.1
		c0,0,0,0.1-0.1,0.1c0,0,0,0.1-0.1,0.1c0,0,0,0.1-0.1,0.1c0,0-0.1,0.1-0.1,0.1c0,0,0,0,0,0s0,0,0,0c0,0,0,0,0,0c0,0,0,0,0,0
		c-0.1,0.1-0.2,0.1-0.3,0.2c-0.2,0-0.4,0-0.6-0.1c-0.1,0-0.1-0.1-0.1-0.1c0,0-0.1-0.1-0.1-0.1c-0.1-0.1-0.1-0.2-0.1-0.3
		c0-0.1,0-0.1,0-0.2s0-0.1,0-0.1c0-0.1,0-0.1,0.1-0.2l0-0.1l2.5-6.1l0.1-0.2c0,0,0-0.1,0.1-0.1c0,0,0-0.1,0.1-0.1
		c0-0.1,0.1-0.2,0.1-0.3c0,0,0.1-0.1,0.1-0.1c0,0,0.1-0.1,0.1-0.1c0-0.1,0.1-0.1,0.2-0.2c0.1,0,0.2-0.1,0.4-0.1c0.1,0,0.3,0,0.4,0.1
		C30.9,4.9,31,5,31,5.1c0.1,0.1,0.1,0.2,0.2,0.3c0,0.1,0.1,0.2,0.1,0.3c0,0.1,0,0.1,0.1,0.1c0,0,0,0.1,0.1,0.1l0.1,0.2l2.5,6.1
		l0,0.1C34.1,12.4,34.1,12.4,34.1,12.5z M31.3,9.6c-0.1-0.2-0.2-0.5-0.3-0.7c-0.1-0.2-0.2-0.5-0.3-0.8c0-0.1-0.1-0.1-0.1-0.2
		s-0.1-0.1-0.1-0.2c0,0.1-0.1,0.1-0.1,0.2c0,0.1-0.1,0.1-0.1,0.2c-0.1,0.3-0.2,0.5-0.3,0.8c-0.1,0.2-0.2,0.5-0.3,0.7l-0.2,0.5h2.1
		L31.3,9.6z"/>
	<path class="st0" d="M35.1,5.8c0-0.3,0.1-0.5,0.3-0.7c0.2-0.2,0.4-0.2,0.7-0.1c0.1,0,0.3,0.1,0.3,0.2c0.1,0.1,0.1,0.2,0.1,0.3
		c0,0.1,0,0.2,0,0.3s0,0.2,0,0.4v1.7c0,0.1,0,0.1,0,0.2c0,0.1,0,0.1,0,0.2v0.2h0.3c0.1,0,0.2,0,0.3,0s0.2,0,0.2,0
		c0.4,0,0.8,0.1,1.1,0.2c0.3,0.1,0.6,0.3,0.8,0.5s0.3,0.5,0.4,0.8c0.1,0.3,0.1,0.7,0.1,1c0,0.4-0.1,0.8-0.2,1.2
		c-0.1,0.3-0.3,0.6-0.6,0.8c-0.2,0.2-0.5,0.4-0.9,0.5c-0.3,0.1-0.7,0.1-1.2,0.1c-0.5,0-0.9,0-1.1,0c-0.3,0-0.4-0.1-0.5-0.2
		c-0.1-0.1-0.2-0.4-0.2-0.7c0-0.3,0-0.8,0-1.5c0-0.6,0-1.2,0-1.8c0-0.6,0-1.2,0-1.8c0-0.1,0-0.2,0-0.3c0-0.1,0-0.2,0-0.3
		c0-0.1,0-0.2,0-0.4C35.1,6.2,35.1,6,35.1,5.8z M37.4,12c0.4,0,0.7-0.1,0.9-0.4c0.1-0.1,0.2-0.3,0.2-0.4s0.1-0.3,0.1-0.5
		c0-0.2,0-0.3-0.1-0.5c-0.1-0.2-0.2-0.3-0.3-0.4c-0.1-0.1-0.2-0.2-0.3-0.2c-0.1,0-0.2-0.1-0.3-0.1c-0.1,0-0.2,0-0.4,0
		c-0.1,0-0.3,0-0.5,0V11l0,1c0.1,0,0.2,0,0.3,0C37,12,37.2,12,37.4,12z"/>
	<path class="st0" d="M42.3,7.9c0.3-0.1,0.5-0.2,0.8-0.3c0.3-0.1,0.6-0.1,0.9,0c0.3,0,0.6,0.1,0.8,0.2c0.3,0.1,0.5,0.3,0.7,0.5
		c0.2,0.2,0.3,0.4,0.5,0.7c0.1,0.3,0.2,0.5,0.3,0.8c0.1,0.4,0.2,0.9,0.1,1.3c-0.1,0.4-0.3,0.9-0.5,1.2c-0.1,0.2-0.3,0.3-0.4,0.5
		c-0.2,0.1-0.3,0.3-0.5,0.3c-0.2,0.1-0.5,0.2-0.8,0.2c-0.3,0-0.6,0.1-0.8,0c-0.5,0-0.9-0.1-1.3-0.4c-0.4-0.2-0.7-0.5-0.9-0.8
		s-0.4-0.7-0.4-1.1c-0.1-0.4,0-0.9,0.1-1.3c0.1-0.5,0.3-0.9,0.6-1.2C41.7,8.3,42,8.1,42.3,7.9z M42.7,9.5c-0.1,0.1-0.2,0.3-0.3,0.4
		c-0.1,0.2-0.1,0.3-0.1,0.5c0,0.2,0,0.4,0,0.5s0.1,0.3,0.2,0.5c0.1,0.1,0.2,0.2,0.4,0.3c0.2,0.1,0.4,0.1,0.6,0.1
		c0.3,0,0.5-0.1,0.7-0.2c0.2-0.2,0.3-0.3,0.4-0.6c0.1-0.2,0.1-0.5,0.1-0.8s-0.1-0.5-0.2-0.7c-0.1-0.2-0.2-0.3-0.4-0.4
		c-0.2-0.1-0.4-0.1-0.5-0.1c-0.2,0-0.4,0-0.6,0.1C43,9.3,42.8,9.4,42.7,9.5z"/>
	<path class="st0" d="M52.4,10.5c0,0.3,0,0.5,0,0.8c0,0.3-0.1,0.5-0.1,0.8c-0.1,0.2-0.2,0.5-0.3,0.7c-0.1,0.2-0.3,0.4-0.6,0.5
		c-0.2,0.1-0.5,0.2-0.7,0.2c-0.3,0-0.5,0.1-0.8,0.1c-0.3,0-0.5,0-0.7-0.1c-0.2-0.1-0.5-0.2-0.6-0.3c-0.2-0.1-0.3-0.3-0.5-0.5
		c-0.1-0.2-0.2-0.4-0.3-0.6c-0.1-0.2-0.1-0.5-0.1-0.7c0-0.2,0-0.5,0-0.7c0-0.6,0-1.1,0-1.6c0-0.1,0-0.2,0-0.4c0-0.1,0-0.3,0-0.4
		c0-0.1,0.1-0.2,0.1-0.4s0.1-0.2,0.2-0.2c0.2-0.1,0.5-0.1,0.7,0c0.2,0.1,0.3,0.3,0.4,0.7c0,0.2,0,0.4,0,0.6s0,0.4,0,0.6
		c0,0.3,0,0.6,0,0.9c0,0.3,0.1,0.6,0.1,0.8s0.2,0.4,0.4,0.6c0.2,0.1,0.5,0.1,0.9,0c0.2-0.1,0.3-0.2,0.4-0.4c0.1-0.2,0.1-0.6,0.1-1
		c0-0.2,0-0.4,0-0.6c0-0.2,0-0.5,0-0.7s0-0.4,0-0.6c0-0.2,0-0.3,0.1-0.5c0-0.1,0.1-0.3,0.3-0.3c0.1-0.1,0.3-0.1,0.4-0.1
		c0.1,0,0.3,0,0.4,0.1c0.1,0.1,0.2,0.2,0.3,0.3c0,0.1,0.1,0.3,0.1,0.5c0,0.2,0,0.4,0,0.6s0,0.5,0,0.7C52.4,10.1,52.4,10.3,52.4,10.5
		z"/>
	<path class="st0" d="M58.2,8c0.1,0.2,0.1,0.3,0,0.5S58.1,8.9,58,8.9c-0.1,0-0.2,0.1-0.3,0.1c-0.1,0-0.3,0-0.4,0.1
		c-0.1,0-0.3,0-0.4,0c-0.1,0-0.3,0-0.3,0c0,0.2,0,0.5,0,0.7s0,0.5,0,0.7c0,0.2,0,0.5,0,0.7c0,0.2,0,0.4,0,0.6c0,0.1,0,0.3,0,0.4
		s0,0.3,0,0.5c0,0.1,0,0.3-0.1,0.4c0,0.1-0.1,0.2-0.2,0.2c-0.2,0.1-0.5,0.1-0.7,0.1c-0.2,0-0.4-0.1-0.4-0.3
		c-0.1-0.1-0.1-0.2-0.1-0.4c0-0.1-0.1-0.3-0.1-0.4s0-0.3,0-0.4c0-0.1,0-0.3,0-0.4c0-0.3,0-0.7,0-1.1c0-0.4,0-0.9,0-1.3h-0.2
		c-0.1,0-0.2,0-0.4,0c-0.1,0-0.3,0-0.4,0c-0.1,0-0.3,0-0.4-0.1s-0.2-0.1-0.3-0.2c-0.1-0.1-0.1-0.2-0.2-0.3c0-0.1,0-0.2,0-0.3
		s0.1-0.2,0.2-0.3s0.2-0.1,0.3-0.2c0.1,0,0.3-0.1,0.6-0.1c0.3,0,0.5,0,0.7,0c0-0.1,0-0.2,0-0.2c0-0.1,0-0.1,0-0.2c0-0.1,0-0.2,0-0.4
		s0-0.3,0-0.4c0-0.1,0.1-0.3,0.1-0.4c0-0.1,0.1-0.2,0.2-0.3c0.1-0.1,0.2-0.1,0.4-0.2s0.2,0,0.3,0.1c0.1,0,0.2,0.1,0.3,0.2
		c0.1,0.1,0.1,0.2,0.2,0.3c0,0.1,0,0.2,0.1,0.3c0,0.1,0,0.3,0,0.4s0,0.3,0,0.4s0,0.3,0,0.4h0.1c0.1,0,0.3,0,0.4,0s0.3,0,0.5,0
		c0.2,0,0.3,0.1,0.4,0.1S58.2,7.9,58.2,8z"/>
</g>
<g>
	<path class="st0" d="M15.2,16.9c0.2,0.2,0.3,0.4,0.3,0.7c0,0.1,0,0.2,0,0.4c0,0.1,0,0.3,0,0.3c-0.1,0.2-0.2,0.3-0.4,0.5
		c-0.1,0-0.1,0.1-0.2,0.1S14.7,19,14.6,19c-0.1,0-0.2,0.1-0.3,0.1c-0.1,0-0.2,0-0.3,0c-0.1,0-0.2,0-0.3,0s-0.2,0-0.3,0h-1.4v0.4
		c0,1.5,0,3,0.1,4.5s0.1,3,0,4.5c0,0.5-0.1,1-0.2,1.5c-0.1,0.5-0.3,1-0.5,1.5c-0.2,0.5-0.5,0.9-0.9,1.3S9.5,33.5,9,33.8
		c-0.5,0.2-1.1,0.3-1.8,0.4c-0.6,0.1-1.3,0.1-1.9,0c-0.6-0.1-1.3-0.2-1.8-0.4S2.4,33.3,2,32.9c-0.2-0.2-0.4-0.4-0.6-0.7
		c-0.2-0.3-0.3-0.6-0.4-0.9c-0.1-0.3-0.1-0.6,0-0.9s0.3-0.6,0.7-0.8c0.3-0.2,0.6-0.2,0.9-0.1c0.3,0.1,0.5,0.3,0.8,0.5
		c0.2,0.2,0.5,0.4,0.8,0.7C4.4,30.8,4.7,30.9,5,31c0.7,0.2,1.2,0.2,1.7,0c0.4-0.2,0.8-0.4,1-0.8C8,29.9,8.1,29.5,8.2,29
		c0.1-0.5,0.2-1,0.2-1.5c0-0.5,0-1,0-1.5s0-0.9,0-1.2c0-0.9,0-1.8,0-2.6c0-0.8,0-1.7,0-2.6v-0.1c0,0,0-0.1,0-0.2H8.4
		c-0.1,0-0.3,0-0.6,0c-0.3,0-0.7,0-1,0s-0.7,0-1,0c-0.3,0-0.5,0-0.6,0H4.7v0c-0.1,0-0.3,0-0.4-0.1C4.2,19,4,19,3.9,19
		c-0.3-0.1-0.6-0.3-0.7-0.5C3.1,18.4,3,18.3,3,18.1c0-0.2-0.1-0.3-0.1-0.5c0-0.1,0-0.2,0-0.3c0-0.1,0-0.2,0-0.3
		c0-0.2,0.1-0.4,0.4-0.5c0.1-0.1,0.3-0.2,0.5-0.2c0.1,0,0.2-0.1,0.4-0.1c0.1,0,0.2,0,0.4-0.1c0.1,0,0.2,0,0.3,0s0.2,0,0.4,0h2.4
		c0.1,0,0.2,0,0.3,0s0.3,0,0.5,0c0.6,0,1.3,0,1.9,0s1.3,0,1.9,0h0.1c0.2,0,0.4,0,0.5,0c0.2,0,0.4,0,0.5,0c0.4,0,0.7,0.1,1.1,0.2
		C14.8,16.5,15,16.7,15.2,16.9z"/>
	<path class="st0" d="M18.1,31.3l0-2l0-3.7c0-0.5,0-1.1,0-1.6s0-1.2,0-1.8s0-1.1,0-1.6s0-1,0-1.6V19c0-0.2,0-0.3,0-0.5
		c0-0.2,0-0.4,0-0.5c0-0.3,0.1-0.6,0.3-1c0.1-0.2,0.3-0.4,0.5-0.6c0.3-0.1,0.5-0.2,0.8-0.2c0.1,0,0.3,0,0.4,0c0.1,0,0.2,0,0.3,0
		c0.2,0,0.4,0.1,0.6,0.3c0.1,0.1,0.2,0.2,0.3,0.4c0,0.1,0.1,0.2,0.1,0.3c0,0.1,0,0.2,0.1,0.3c0,0.1,0,0.2,0,0.3c0,0.1,0,0.2,0,0.3
		c0,0.1,0,0.2,0,0.3c0,0.1,0,0.2,0,0.3v0.4l-0.1,13v0.3c0,0,0,0.1,0,0.2c0,0.1,0,0.2,0,0.3c0,0.1-0.1,0.2-0.1,0.3
		c0,0.1-0.1,0.2-0.1,0.3c-0.1,0.1-0.1,0.2-0.2,0.2c-0.1,0.1-0.1,0.1-0.2,0.2c-0.1,0.1-0.4,0.2-0.6,0.3c-0.5,0.1-0.9,0.1-1.3-0.1
		c-0.2-0.1-0.3-0.3-0.4-0.5c0-0.1-0.1-0.1-0.1-0.2c0,0,0-0.1,0-0.1s0,0,0-0.1c0-0.1-0.1-0.2-0.1-0.3c0-0.1,0-0.2,0-0.3
		c0-0.1,0-0.2,0-0.3c0-0.1,0-0.2,0-0.3c0-0.1,0-0.3,0-0.4V31.3z"/>
	<path class="st0" d="M37,17.3c0,0.1,0,0.2,0,0.3s0,0.2-0.1,0.3c-0.1,0.2-0.1,0.4-0.2,0.6c-0.1,0.2-0.2,0.4-0.4,0.6
		c-0.1,0.1-0.1,0.2-0.2,0.3c-0.1,0.1-0.1,0.2-0.2,0.3L35.6,20l-3.2,4.6l-0.6,0.7V32c0,0.1-0.1,0.2-0.1,0.3c0,0.1,0,0.2,0,0.3
		c0,0.1-0.1,0.2-0.1,0.2s0,0.2-0.1,0.2c0,0.1-0.1,0.1-0.1,0.2c0,0,0,0.1,0,0.1c0,0,0,0,0,0.1c-0.1,0.2-0.2,0.3-0.4,0.5
		c-0.4,0.2-0.8,0.2-1.3,0.1c-0.3,0-0.5-0.1-0.6-0.3c-0.1,0-0.2-0.1-0.2-0.2c0-0.1-0.1-0.1-0.1-0.2c0-0.1-0.1-0.2-0.1-0.3
		c0-0.1-0.1-0.2-0.1-0.3c0-0.1,0-0.2,0-0.2c0-0.1,0-0.1,0-0.2v-6.8l-0.5-0.8L24.9,20l-0.3-0.5c-0.1-0.2-0.2-0.3-0.4-0.5
		c-0.1-0.2-0.3-0.4-0.3-0.6c-0.1-0.1-0.1-0.2-0.2-0.3c0-0.1-0.1-0.2-0.1-0.3c0-0.2-0.1-0.3,0-0.5c0.1-0.2,0.1-0.4,0.3-0.5
		c0.2-0.2,0.3-0.3,0.5-0.3c0.2-0.2,0.5-0.2,0.8-0.2c0.2,0,0.3,0,0.5,0.1c0.1,0.1,0.3,0.1,0.4,0.2c0.1,0.1,0.3,0.2,0.4,0.4
		c0.1,0.1,0.3,0.3,0.4,0.4c0.1,0.2,0.3,0.3,0.4,0.5c0.1,0.1,0.2,0.3,0.4,0.5l0.1,0.1c0.4,0.5,0.8,1,1.1,1.5c0.4,0.5,0.7,1,1.1,1.6
		c0,0,0.1,0.1,0.1,0.2c0.1,0.1,0.1,0.2,0.2,0.3c0.1-0.1,0.1-0.2,0.2-0.3c0.1-0.1,0.1-0.2,0.1-0.2c0.4-0.6,0.8-1.1,1.1-1.6
		c0.4-0.5,0.7-1,1.1-1.5l0.1-0.1c0.1-0.1,0.3-0.3,0.4-0.5s0.2-0.3,0.4-0.5c0.2-0.3,0.5-0.6,0.9-0.8c0.3-0.2,0.5-0.3,0.8-0.4
		c0.3,0,0.6,0,0.8,0.2c0.1,0.1,0.2,0.1,0.3,0.2c0.1,0.1,0.2,0.1,0.2,0.2C36.8,16.9,36.9,17.1,37,17.3z"/>
	<path class="st0" d="M43.4,16.8c1.1-0.4,2.1-0.6,3-0.5c0.9,0,1.7,0.3,2.4,0.7c0.7,0.4,1.3,1,1.8,1.6s0.9,1.5,1.2,2.3
		c0.3,0.6,0.4,1.3,0.6,2s0.2,1.4,0.2,2.1c0,0.7,0,1.4-0.1,2c-0.1,0.7-0.2,1.3-0.4,1.8c-0.1,0.4-0.2,0.7-0.3,1.1
		c-0.1,0.3-0.3,0.6-0.5,0.9c-0.4,0.7-1,1.3-1.6,1.8c-0.7,0.5-1.4,0.8-2.2,1c-0.5,0.1-1.1,0.2-1.7,0.2s-1.1-0.1-1.7-0.2
		s-1.1-0.4-1.6-0.6c-0.5-0.3-1-0.6-1.4-1c-0.5-0.5-0.9-1.1-1.3-1.7c-0.3-0.7-0.6-1.3-0.8-2.1c-0.2-0.7-0.3-1.5-0.4-2.2
		c0-0.7,0-1.4,0-2.1c0.1-0.6,0.2-1.3,0.4-2c0.2-0.7,0.5-1.4,0.8-2c0.4-0.6,0.8-1.2,1.3-1.8C42.1,17.5,42.7,17.1,43.4,16.8z
		 M49.3,27.5c0.2-0.8,0.3-1.7,0.3-2.7c0-1-0.2-1.9-0.5-2.8c-0.2-0.5-0.4-1-0.7-1.4c-0.3-0.4-0.6-0.7-1-0.9s-0.8-0.3-1.3-0.3
		s-1.1,0.1-1.7,0.5c-0.4,0.2-0.7,0.4-0.9,0.8c-0.3,0.3-0.5,0.7-0.6,1.1c-0.2,0.4-0.3,0.8-0.4,1.3c-0.1,0.4-0.1,0.9-0.2,1.3
		c0,0.4,0,0.9,0,1.4c0,0.5,0.1,1,0.2,1.4c0.1,0.5,0.2,0.9,0.4,1.3c0.2,0.4,0.4,0.8,0.7,1.1c0.4,0.5,0.9,0.8,1.5,1
		c0.6,0.2,1.1,0.2,1.7,0.1c0.9-0.2,1.6-0.8,2.1-1.8C49.1,28.4,49.2,28,49.3,27.5z"/>
	<path class="st0" d="M59.3,16.8c1.1-0.4,2.1-0.6,3-0.5c0.9,0,1.7,0.3,2.4,0.7c0.7,0.4,1.3,1,1.8,1.6s0.9,1.5,1.2,2.3
		c0.3,0.6,0.4,1.3,0.6,2s0.2,1.4,0.2,2.1c0,0.7,0,1.4-0.1,2c-0.1,0.7-0.2,1.3-0.4,1.8c-0.1,0.4-0.2,0.7-0.3,1.1
		c-0.1,0.3-0.3,0.6-0.5,0.9c-0.4,0.7-1,1.3-1.6,1.8c-0.7,0.5-1.4,0.8-2.2,1c-0.5,0.1-1.1,0.2-1.7,0.2s-1.1-0.1-1.7-0.2
		s-1.1-0.4-1.6-0.6c-0.5-0.3-1-0.6-1.4-1c-0.5-0.5-0.9-1.1-1.3-1.7c-0.3-0.7-0.6-1.3-0.8-2.1c-0.2-0.7-0.3-1.5-0.4-2.2
		c0-0.7,0-1.4,0-2.1c0-0.6,0.2-1.3,0.4-2s0.5-1.4,0.8-2c0.4-0.6,0.8-1.2,1.3-1.8C58,17.5,58.6,17.1,59.3,16.8z M65.1,27.5
		c0.2-0.8,0.3-1.7,0.3-2.7c0-1-0.2-1.9-0.5-2.8c-0.2-0.5-0.4-1-0.7-1.4c-0.3-0.4-0.6-0.7-1-0.9s-0.8-0.3-1.3-0.3s-1.1,0.1-1.7,0.5
		c-0.4,0.2-0.7,0.4-0.9,0.8c-0.3,0.3-0.5,0.7-0.6,1.1c-0.2,0.4-0.3,0.8-0.4,1.3c-0.1,0.4-0.1,0.9-0.2,1.3c0,0.4,0,0.9,0,1.4
		c0,0.5,0.1,1,0.2,1.4c0.1,0.5,0.2,0.9,0.4,1.3c0.2,0.4,0.4,0.8,0.7,1.1c0.4,0.5,0.9,0.8,1.5,1c0.6,0.2,1.1,0.2,1.7,0.1
		c0.9-0.2,1.6-0.8,2.1-1.8C64.9,28.4,65,28,65.1,27.5z"/>
	<path class="st0" d="M84.3,32c0,0.3-0.1,0.6-0.1,0.9c-0.1,0.3-0.2,0.6-0.5,0.8C83.5,33.9,83.3,34,83,34s-0.5,0-0.7,0
		c-0.2-0.1-0.5-0.2-0.7-0.3c-0.2-0.1-0.4-0.3-0.5-0.5c-0.6-0.7-1.1-1.4-1.6-2.2c-0.5-0.7-1-1.5-1.4-2.2L76,25.7
		c-0.3-0.5-0.6-1-0.9-1.5s-0.6-1.1-1-1.6L74,32.1v0.2c0,0.3,0,0.5-0.1,0.8s-0.2,0.5-0.5,0.7C73.2,34,73,34,72.8,34.1
		c-0.4,0.1-0.8,0.1-1-0.1c-0.3-0.1-0.5-0.3-0.6-0.5c-0.2-0.2-0.3-0.5-0.3-0.8s-0.1-0.6,0-0.9v-0.4l0-2l0-3.6c0-0.5,0-1.1,0-1.6
		c0-0.6,0-1.1,0-1.7c0-0.7,0-1.5,0-2.3c0-0.8,0.1-1.5,0.1-2.3c0-0.4,0.1-0.7,0.3-1c0.1-0.2,0.2-0.4,0.5-0.6c0.2-0.1,0.4-0.2,0.7-0.2
		s0.5,0,0.8,0c0.1,0,0.2,0.1,0.3,0.1c0.1,0,0.2,0.1,0.3,0.1c0.1,0.1,0.2,0.1,0.2,0.2c0.1,0.1,0.1,0.1,0.2,0.2
		c0.1,0.1,0.2,0.2,0.2,0.3c0.1,0.1,0.1,0.2,0.2,0.3c0,0.1,0.1,0.2,0.2,0.3c0,0.1,0.1,0.2,0.2,0.3l0.3,0.4l5.8,9.1v-1.7
		c0-0.5,0-1.1,0-1.6s0-1.1,0-1.7c0-0.7,0-1.5,0-2.3c0-0.8,0-1.5,0.1-2.3c0-0.3,0.1-0.6,0.3-1c0.1-0.2,0.2-0.4,0.4-0.5
		c0.2-0.1,0.4-0.2,0.7-0.3c0.3-0.1,0.5-0.1,0.8,0c0.3,0,0.5,0.1,0.7,0.3c0,0,0.1,0.1,0.1,0.2s0.1,0.1,0.1,0.2
		c0.1,0.2,0.1,0.4,0.2,0.6c0,0.2,0.1,0.4,0.1,0.6c0,2.1,0,4.2,0,6.4c0,2.2,0,4.3,0,6.4c0,0.2,0,0.5,0,0.7S84.3,31.8,84.3,32z"/>
</g>
</svg>
