<?xml version="1.0" encoding="utf-8"?>
<!-- Generator: Adobe Illustrator 25.4.1, SVG Export Plug-In . SVG Version: 6.00 Build 0)  -->
<svg version="1.1" id="레이어_2" xmlns="http://www.w3.org/2000/svg" xmlns:xlink="http://www.w3.org/1999/xlink" x="0px"
	 y="0px" viewBox="0 0 600 50" style="enable-background:new 0 0 600 50;" xml:space="preserve">
<style type="text/css">
	.st0{fill:#D3D3D3;}
	.st1{fill:#FFFFFF;}
</style>
<g>
	<path class="st0" d="M300,2H0v17.1c0,0,1.3-0.6,2.8,0.5c1.1,0.8,2.8,3,4.1,4.5c1.2,1.4,3.2,3.9,6.5,3.7c3.7-0.3,6.9-6.2,6.9-6.2
		s2.8-6,4.4,2.2c0,0.1,0,0.2,0.1,0.4c1,5.3,3,23.6,8.5,22.8c5.9-0.9,5.9-13.3,8.6-27s8-6.1,9.6-0.7c1.3,4.4,3.8,7.2,7.1,7.1
		c3.3-0.2,4.6-3.7,6.2-6.9s7.3-10.1,12-0.1c0.8,1.8,2.5,2.4,3.4,2.4s1.7,0.2,3.2-2c1.4-2.1,3.8-2.7,5.1,0c1.3,2.8,1.9,7.2,5.3,6.6
		c1.1-0.2,2.8-1.7,3.9-2.7c1.1-1.1,2.5-2.5,3.9-3c2.5-0.8,5.9-0.1,8.1,4.9c0.9,2.1,2.4,11.4,7.1,11.6c4.7,0.2,7.8-7.6,9-11.6
		s3-8.1,6.5-0.1c1.2,2.8,6.7,6.6,10.9-2.3s12-6.7,14.2,0.3s9.6,6.1,11.4,0.3c1.9-5.9,5.4-5,6.6,2c0.5,3.1,0.7,20.8,7.2,20.8
		s5.5-17.9,7.6-25.1c1-3.5,3.1-9.2,6.5-8.4c3.9,1,4.1,12.5,10.7,13c6.1,0.4,8.7-11.8,12.6-11.5c5.2,0.4,3.7,7.1,9.4,7.5
		c0,0,2.4,0.5,3.7-2.5c1-2.2,4.7-3.8,6.2,2s4.2,6.4,8.4,2.2s7.9-7.6,12.2,3.6c4.3,11.2,9.9,14.3,14.8,0.6c1.1-3.1,2.8-11.8,7.2-2.4
		c2.9,6.2,8.8,3.2,10.7-0.7c1.7-3.6,5.5-6,7.7-6L300,2z"/>
	<path class="st1" d="M300,0H0v17.1c0,0,1.3-0.6,2.8,0.5c1.1,0.8,2.8,3,4.1,4.5c1.2,1.4,3.2,3.9,6.5,3.7c3.7-0.3,6.9-6.2,6.9-6.2
		s2.8-6,4.4,2.2c0,0.1,0,0.2,0.1,0.4c1,5.3,3,23.6,8.5,22.8c5.9-0.9,5.9-13.3,8.6-27s8-6.1,9.6-0.7c1.3,4.4,3.8,7.2,7.1,7.1
		c3.3-0.2,4.6-3.7,6.2-6.9s7.3-10.1,12-0.1c0.8,1.8,2.5,2.4,3.4,2.4s1.7,0.2,3.2-2c1.4-2.1,3.8-2.7,5.1,0c1.3,2.8,1.9,7.2,5.3,6.6
		c1.1-0.2,2.8-1.7,3.9-2.7c1.1-1.1,2.5-2.5,3.9-3c2.5-0.8,5.9-0.1,8.1,4.9c0.9,2.1,2.4,11.4,7.1,11.6c4.7,0.2,7.8-7.6,9-11.6
		s3-8.1,6.5-0.1c1.2,2.8,6.7,6.6,10.9-2.3s12-6.7,14.2,0.3s9.6,6.1,11.4,0.3c1.9-5.9,5.4-5,6.6,2c0.5,3.1,0.7,20.8,7.2,20.8
		s5.5-17.9,7.6-25.1c1-3.5,3.1-9.2,6.5-8.4c3.9,1,4.1,12.5,10.7,13c6.1,0.4,8.7-11.8,12.6-11.5c5.2,0.4,3.7,7.1,9.4,7.5
		c0,0,2.4,0.5,3.7-2.5c1-2.2,4.7-3.8,6.2,2s4.2,6.4,8.4,2.2s7.9-7.6,12.2,3.6c4.3,11.2,9.9,14.3,14.8,0.6c1.1-3.1,2.8-11.8,7.2-2.4
		c2.9,6.2,8.8,3.2,10.7-0.7c1.7-3.6,5.5-6,7.7-6L300,0z"/>
</g>
<g>
	<path class="st0" d="M600,2H300v17.1c0,0,1.3-0.6,2.8,0.5c1.1,0.8,2.8,3,4.1,4.5c1.2,1.4,3.2,3.9,6.5,3.7c3.7-0.3,6.9-6.2,6.9-6.2
		s2.8-6,4.4,2.2c0,0.1,0,0.2,0.1,0.4c1,5.3,3,23.6,8.5,22.8c5.9-0.9,5.9-13.3,8.6-27c2.7-13.7,8-6.1,9.6-0.7
		c1.3,4.4,3.8,7.2,7.1,7.1c3.3-0.2,4.6-3.7,6.2-6.9c1.6-3.2,7.3-10.1,12-0.1c0.8,1.8,2.5,2.4,3.4,2.4c0.9,0,1.7,0.2,3.2-2
		c1.4-2.1,3.8-2.7,5.1,0c1.3,2.8,1.9,7.2,5.3,6.6c1.1-0.2,2.8-1.7,3.9-2.7c1.1-1.1,2.5-2.5,3.9-3c2.5-0.8,5.9-0.1,8.1,4.9
		c0.9,2.1,2.4,11.4,7.1,11.6c4.7,0.2,7.8-7.6,9-11.6c1.2-4,3-8.1,6.5-0.1c1.2,2.8,6.7,6.6,10.9-2.3s12-6.7,14.2,0.3
		c2.2,7,9.6,6.1,11.4,0.3c1.9-5.9,5.4-5,6.6,2c0.5,3.1,0.7,20.8,7.2,20.8s5.5-17.9,7.6-25.1c1-3.5,3.1-9.2,6.5-8.4
		c3.9,1,4.1,12.5,10.7,13c6.1,0.4,8.7-11.8,12.6-11.5c5.2,0.4,3.7,7.1,9.4,7.5c0,0,2.4,0.5,3.7-2.5c1-2.2,4.7-3.8,6.2,2
		s4.2,6.4,8.4,2.2c4.2-4.2,7.9-7.6,12.2,3.6s9.9,14.3,14.8,0.6c1.1-3.1,2.8-11.8,7.2-2.4c2.9,6.2,8.8,3.2,10.7-0.7
		c1.7-3.6,5.5-6,7.7-6L600,2z"/>
	<path class="st1" d="M600,0H300v17.1c0,0,1.3-0.6,2.8,0.5c1.1,0.8,2.8,3,4.1,4.5c1.2,1.4,3.2,3.9,6.5,3.7c3.7-0.3,6.9-6.2,6.9-6.2
		s2.8-6,4.4,2.2c0,0.1,0,0.2,0.1,0.4c1,5.3,3,23.6,8.5,22.8c5.9-0.9,5.9-13.3,8.6-27c2.7-13.7,8-6.1,9.6-0.7
		c1.3,4.4,3.8,7.2,7.1,7.1c3.3-0.2,4.6-3.7,6.2-6.9c1.6-3.2,7.3-10.1,12-0.1c0.8,1.8,2.5,2.4,3.4,2.4c0.9,0,1.7,0.2,3.2-2
		c1.4-2.1,3.8-2.7,5.1,0c1.3,2.8,1.9,7.2,5.3,6.6c1.1-0.2,2.8-1.7,3.9-2.7c1.1-1.1,2.5-2.5,3.9-3c2.5-0.8,5.9-0.1,8.1,4.9
		c0.9,2.1,2.4,11.4,7.1,11.6c4.7,0.2,7.8-7.6,9-11.6c1.2-4,3-8.1,6.5-0.1c1.2,2.8,6.7,6.6,10.9-2.3s12-6.7,14.2,0.3
		c2.2,7,9.6,6.1,11.4,0.3c1.9-5.9,5.4-5,6.6,2c0.5,3.1,0.7,20.8,7.2,20.8s5.5-17.9,7.6-25.1c1-3.5,3.1-9.2,6.5-8.4
		c3.9,1,4.1,12.5,10.7,13c6.1,0.4,8.7-11.8,12.6-11.5c5.2,0.4,3.7,7.1,9.4,7.5c0,0,2.4,0.5,3.7-2.5c1-2.2,4.7-3.8,6.2,2
		s4.2,6.4,8.4,2.2c4.2-4.2,7.9-7.6,12.2,3.6s9.9,14.3,14.8,0.6c1.1-3.1,2.8-11.8,7.2-2.4c2.9,6.2,8.8,3.2,10.7-0.7
		c1.7-3.6,5.5-6,7.7-6L600,0z"/>
</g>
</svg>
