<?xml version="1.0" encoding="utf-8"?>
<!-- Generator: Adobe Illustrator 25.4.1, SVG Export Plug-In . SVG Version: 6.00 Build 0)  -->
<svg version="1.1" id="Layer_1" xmlns="http://www.w3.org/2000/svg" xmlns:xlink="http://www.w3.org/1999/xlink" x="0px" y="0px"
	 viewBox="0 0 200 15" style="enable-background:new 0 0 200 15;" xml:space="preserve">
<style type="text/css">
	.st0{fill:#FFFFFF;}
</style>
<path class="st0" d="M100.1,0h-0.2H0v9.5c3.3,0.3,4.7-1.5,6.3-5c0,0,2.1-6,5.3-1c3.6,5.8,5.3,4.5,8.4,0c0.7-1,1.6-2.5,4.7-0.5
	c1.5,0.9,10.9,5.2,13.2,1.4c3-4.8,4.7-0.4,6.2,1.1s3.2,5,6.3-1c1.4-2.6,3.1-2.1,5.1-0.1c0.8,0.9,1.4,1.9,1.9,3
	c4,8.6,7.7,6.8,10.8-1.9c1.2-3.3,5.7-3.2,7.4,0c1.6,3.2,8,8.5,13.2-0.7c3.6-6.3,7.4,0,7.4,0s1.7,2.3,3.6,2.3c0,0,0,0,0,0
	c0,0,0,0,0,0c0,0,0,0,0,0c0,0,0,0,0,0c1.9,0,3.6-2.3,3.6-2.3s2.3-5.2,7.4,0C115.2,9,120.4,8,122.5,6c2.7-2.5,6.3-4,9.1-0.5
	c6.2,7.7,9,5.3,11.2,1.2c0.6-1.1,1.3-2.2,2.3-3c1.7-1.4,3.2-1.5,4.4,0.8c3.2,6,5.6,2.3,6.3,1c0.3-0.4,2.4-3.5,6.2-1.1
	c3.8,2.4,5.7,4.6,11.6-0.9c2.7-2.5,5.7-1.1,6.3,0c3.4,5.7,5.1,7,8.4,0c2.5-5.3,5.3,1,5.3,1c1.6,3.5,3,5.3,6.3,5V0H100.1z"/>
</svg>
